G04*
G04 #@! TF.GenerationSoftware,Altium Limited,Altium Designer,21.0.8 (223)*
G04*
G04 Layer_Physical_Order=2*
G04 Layer_Color=16711680*
%FSLAX25Y25*%
%MOIN*%
G70*
G04*
G04 #@! TF.SameCoordinates,76373615-CB27-452B-AC01-166D02EDBD73*
G04*
G04*
G04 #@! TF.FilePolarity,Positive*
G04*
G01*
G75*
%ADD59C,0.02362*%
%ADD60C,0.01575*%
%ADD61C,0.01181*%
%ADD62C,0.03937*%
%ADD64O,0.07500X0.06500*%
%ADD65C,0.11811*%
%ADD66O,0.06693X0.07874*%
%ADD67C,0.03347*%
%ADD68C,0.04756*%
%ADD69O,0.10236X0.04331*%
G04:AMPARAMS|DCode=70|XSize=55mil|YSize=40mil|CornerRadius=0mil|HoleSize=0mil|Usage=FLASHONLY|Rotation=0.000|XOffset=0mil|YOffset=0mil|HoleType=Round|Shape=Octagon|*
%AMOCTAGOND70*
4,1,8,0.02750,-0.01000,0.02750,0.01000,0.01750,0.02000,-0.01750,0.02000,-0.02750,0.01000,-0.02750,-0.01000,-0.01750,-0.02000,0.01750,-0.02000,0.02750,-0.01000,0.0*
%
%ADD70OCTAGOND70*%

%ADD71O,0.05500X0.04000*%
%ADD72O,0.06500X0.07500*%
%ADD73O,0.07087X0.05906*%
%ADD74C,0.03150*%
%ADD75C,0.03937*%
G36*
X105900Y406194D02*
X356492D01*
X356500Y406193D01*
X356508Y406194D01*
X356797D01*
X357806Y406062D01*
X358883Y405615D01*
X359807Y404906D01*
X360517Y403981D01*
X360963Y402904D01*
X361095Y401902D01*
X361094Y401898D01*
Y280258D01*
X361094Y279800D01*
X361101Y279760D01*
X361066Y279279D01*
X360963Y278494D01*
X360517Y277417D01*
X359807Y276493D01*
X358883Y275783D01*
X357806Y275337D01*
X356803Y275205D01*
X356800Y275206D01*
X106658D01*
X106200Y275206D01*
X106160Y275199D01*
X105679Y275234D01*
X104894Y275337D01*
X103817Y275783D01*
X102893Y276493D01*
X102183Y277417D01*
X101737Y278494D01*
X101605Y279497D01*
X101606Y279500D01*
Y401142D01*
X101606Y401600D01*
X101599Y401640D01*
X101634Y402121D01*
X101737Y402906D01*
X102183Y403983D01*
X102893Y404907D01*
X103817Y405617D01*
X104894Y406063D01*
X105896Y406195D01*
X105900Y406194D01*
D02*
G37*
%LPC*%
G36*
X151687Y395083D02*
Y391187D01*
X155149D01*
X155041Y392009D01*
X154612Y393043D01*
X153931Y393931D01*
X153043Y394612D01*
X152009Y395041D01*
X151687Y395083D01*
D02*
G37*
G36*
X150113D02*
X149791Y395041D01*
X148757Y394612D01*
X147869Y393931D01*
X147188Y393043D01*
X146759Y392009D01*
X146651Y391187D01*
X150113D01*
Y395083D01*
D02*
G37*
G36*
X155149Y389613D02*
X151687D01*
Y385717D01*
X152009Y385759D01*
X153043Y386188D01*
X153931Y386869D01*
X154612Y387757D01*
X155041Y388790D01*
X155149Y389613D01*
D02*
G37*
G36*
X150113D02*
X146651D01*
X146759Y388790D01*
X147188Y387757D01*
X147869Y386869D01*
X148757Y386188D01*
X149791Y385759D01*
X150113Y385717D01*
Y389613D01*
D02*
G37*
G36*
X198398Y399787D02*
X197002D01*
X195633Y399514D01*
X194343Y398980D01*
X193183Y398204D01*
X192195Y397217D01*
X191420Y396057D01*
X190886Y394767D01*
X190613Y393398D01*
Y392002D01*
X190886Y390633D01*
X191420Y389343D01*
X192195Y388182D01*
X193183Y387195D01*
X194343Y386420D01*
X195633Y385886D01*
X197002Y385613D01*
X198398D01*
X199767Y385886D01*
X201057Y386420D01*
X202218Y387195D01*
X203204Y388182D01*
X203980Y389343D01*
X204514Y390633D01*
X204787Y392002D01*
Y393398D01*
X204514Y394767D01*
X203980Y396057D01*
X203204Y397217D01*
X202218Y398204D01*
X201057Y398980D01*
X199767Y399514D01*
X198398Y399787D01*
D02*
G37*
G36*
X113171Y383213D02*
X105829D01*
X106130Y382487D01*
X106610Y381860D01*
Y381368D01*
X106481Y381269D01*
X105971Y380604D01*
X105651Y379830D01*
X105542Y379000D01*
X105651Y378170D01*
X105971Y377396D01*
X106481Y376731D01*
X106495Y376517D01*
X105569Y375590D01*
Y372410D01*
X107159Y370819D01*
X111841D01*
X113431Y372410D01*
Y375590D01*
X112505Y376517D01*
X112519Y376731D01*
X113029Y377396D01*
X113349Y378170D01*
X113459Y379000D01*
X113349Y379830D01*
X113029Y380604D01*
X112519Y381269D01*
X112390Y381368D01*
Y381860D01*
X112871Y382487D01*
X113171Y383213D01*
D02*
G37*
G36*
X110250Y392209D02*
X108750D01*
X107920Y392099D01*
X107146Y391779D01*
X106481Y391269D01*
X105971Y390604D01*
X105651Y389830D01*
X105542Y389000D01*
X105651Y388170D01*
X105971Y387396D01*
X106481Y386731D01*
X106610Y386632D01*
Y386140D01*
X106130Y385513D01*
X105829Y384787D01*
X113171D01*
X112949Y385323D01*
X113214Y385823D01*
X116378D01*
X116823Y385378D01*
Y370000D01*
Y345316D01*
X113754Y342246D01*
X113249Y341588D01*
X112932Y340822D01*
X112823Y340000D01*
Y326000D01*
X112932Y325178D01*
X113249Y324412D01*
X113754Y323754D01*
X130796Y306712D01*
Y282000D01*
X130796Y282000D01*
X130887Y281539D01*
X131149Y281149D01*
X131149Y281149D01*
X133149Y279149D01*
X133539Y278887D01*
X134000Y278796D01*
X134000Y278796D01*
X166000D01*
X166000Y278796D01*
X166461Y278887D01*
X166851Y279149D01*
X166851Y279149D01*
X168851Y281149D01*
X169113Y281539D01*
X169204Y282000D01*
X169204Y282000D01*
Y297993D01*
X179000D01*
X179768Y298146D01*
X180419Y298581D01*
X186419Y304581D01*
X186854Y305232D01*
X187007Y306000D01*
Y321000D01*
X186854Y321768D01*
X186621Y322117D01*
X187009Y322436D01*
X199821Y309624D01*
Y301586D01*
X199393Y301158D01*
X199322Y301035D01*
X198987Y301035D01*
X198775Y301087D01*
X198318Y301545D01*
X197708Y301897D01*
X197464Y301962D01*
Y299406D01*
X196676D01*
Y298618D01*
X194120D01*
X194185Y298374D01*
X194537Y297764D01*
X194995Y297306D01*
X195047Y297098D01*
Y296759D01*
X194923Y296688D01*
X194392Y296157D01*
X194016Y295506D01*
X193822Y294780D01*
Y294028D01*
X194016Y293302D01*
X194392Y292652D01*
X194830Y292213D01*
X194885Y291905D01*
X194830Y291596D01*
X194392Y291158D01*
X194016Y290507D01*
X193822Y289781D01*
Y289030D01*
X194016Y288304D01*
X194392Y287653D01*
X194923Y287122D01*
X195574Y286746D01*
X196300Y286551D01*
X197052D01*
X197778Y286746D01*
X198429Y287122D01*
X198869Y287561D01*
X199177Y287615D01*
X199485Y287561D01*
X199925Y287122D01*
X200575Y286746D01*
X201301Y286551D01*
X202053D01*
X202779Y286746D01*
X203430Y287122D01*
X203907Y287599D01*
X207405D01*
X208097Y287737D01*
X208683Y288128D01*
X211318Y290763D01*
X211709Y291349D01*
X211847Y292041D01*
Y302887D01*
X212347Y302953D01*
X212432Y302636D01*
X212795Y302008D01*
X213308Y301495D01*
X213936Y301132D01*
X214637Y300944D01*
X215363D01*
X216064Y301132D01*
X216692Y301495D01*
X217057Y301860D01*
X217440Y301819D01*
X217625Y301346D01*
X217264Y300985D01*
X216873Y300399D01*
X216735Y299708D01*
Y290348D01*
X216258Y290150D01*
X215313Y289424D01*
X214587Y288479D01*
X214131Y287377D01*
X213975Y286195D01*
Y285014D01*
X214131Y283832D01*
X214587Y282731D01*
X215313Y281785D01*
X216258Y281059D01*
X217360Y280603D01*
X218542Y280448D01*
X219724Y280603D01*
X220825Y281059D01*
X221771Y281785D01*
X222497Y282731D01*
X222953Y283832D01*
X223108Y285014D01*
Y286195D01*
X222953Y287377D01*
X222497Y288479D01*
X221771Y289424D01*
X220825Y290150D01*
X220348Y290348D01*
Y298881D01*
X237997D01*
X238396Y298482D01*
X239024Y298120D01*
X239725Y297932D01*
X240451D01*
X241151Y298120D01*
X241780Y298482D01*
X242293Y298996D01*
X242656Y299624D01*
X242844Y300325D01*
Y301051D01*
X242752Y301394D01*
X243129Y301894D01*
X253967D01*
X254659Y302031D01*
X255245Y302423D01*
X255744Y302923D01*
X256037Y302844D01*
X256763D01*
X257464Y303032D01*
X258092Y303395D01*
X258605Y303908D01*
X258968Y304536D01*
X259156Y305237D01*
Y305963D01*
X258968Y306664D01*
X258605Y307292D01*
X258092Y307805D01*
X257464Y308168D01*
X256763Y308356D01*
X256037D01*
X255336Y308168D01*
X254708Y307805D01*
X254195Y307292D01*
X253832Y306664D01*
X253644Y305963D01*
Y305931D01*
X253219Y305506D01*
X217091D01*
X216692Y305905D01*
X216546Y305989D01*
X216768Y306439D01*
X217360Y306194D01*
X218542Y306038D01*
X219724Y306194D01*
X220825Y306650D01*
X221771Y307376D01*
X222497Y308321D01*
X222953Y309423D01*
X223108Y310605D01*
Y311786D01*
X222953Y312968D01*
X222497Y314069D01*
X221771Y315015D01*
X220825Y315741D01*
X219724Y316197D01*
X218542Y316353D01*
X217360Y316197D01*
X216258Y315741D01*
X215313Y315015D01*
X214587Y314069D01*
X214131Y312968D01*
X213975Y311786D01*
Y310605D01*
X214131Y309423D01*
X214587Y308321D01*
X215313Y307376D01*
X216091Y306779D01*
X215865Y306321D01*
X215363Y306456D01*
X214637D01*
X213936Y306268D01*
X213308Y305905D01*
X212795Y305392D01*
X212432Y304764D01*
X212347Y304447D01*
X211847Y304513D01*
Y324221D01*
X212284Y324658D01*
X212647Y325286D01*
X212834Y325987D01*
Y326712D01*
X212647Y327413D01*
X212284Y328042D01*
X211846Y328480D01*
Y359948D01*
X212205Y360308D01*
X212568Y360936D01*
X212756Y361637D01*
Y362363D01*
X212568Y363064D01*
X212205Y363692D01*
X211692Y364205D01*
X211064Y364568D01*
X210363Y364756D01*
X209637D01*
X208936Y364568D01*
X208308Y364205D01*
X207795Y363692D01*
X207432Y363064D01*
X207244Y362363D01*
Y361637D01*
X207432Y360936D01*
X207795Y360308D01*
X208233Y359870D01*
Y328401D01*
X207873Y328042D01*
X207510Y327413D01*
X207323Y326712D01*
Y325987D01*
X207510Y325286D01*
X207873Y324658D01*
X208234Y324296D01*
Y312974D01*
X207772Y312782D01*
X181539Y339016D01*
Y339580D01*
X181351Y340281D01*
X180988Y340909D01*
X180475Y341422D01*
X179847Y341785D01*
X179146Y341973D01*
X178420D01*
X177719Y341785D01*
X177091Y341422D01*
X176578Y340909D01*
X176215Y340281D01*
X176027Y339580D01*
Y339234D01*
X175527Y339027D01*
X175186Y339368D01*
X175186Y339368D01*
X172241Y342313D01*
Y346474D01*
X172640Y346873D01*
X173003Y347501D01*
X173191Y348202D01*
Y348928D01*
X173003Y349629D01*
X172640Y350257D01*
X172127Y350770D01*
X171499Y351133D01*
X170798Y351321D01*
X170072D01*
X169371Y351133D01*
X168743Y350770D01*
X168230Y350257D01*
X167867Y349629D01*
X167679Y348928D01*
Y348202D01*
X167867Y347501D01*
X168230Y346873D01*
X168629Y346474D01*
Y341565D01*
X168766Y340874D01*
X169158Y340288D01*
X172632Y336814D01*
X172632Y336814D01*
X178190Y331256D01*
X177982Y330756D01*
X177637D01*
X176936Y330568D01*
X176308Y330205D01*
X175795Y329692D01*
X175432Y329064D01*
X175244Y328363D01*
Y327637D01*
X175432Y326936D01*
X175795Y326308D01*
X176308Y325795D01*
X176936Y325432D01*
X177637Y325244D01*
X177918D01*
X182993Y320169D01*
Y306831D01*
X178169Y302007D01*
X169204D01*
Y307000D01*
X169204Y307000D01*
X169113Y307461D01*
X168851Y307852D01*
X168851Y307852D01*
X166851Y309852D01*
X166461Y310113D01*
X166000Y310204D01*
X166000Y310204D01*
X136288D01*
X119177Y327316D01*
Y338684D01*
X122246Y341754D01*
X122751Y342412D01*
X123068Y343178D01*
X123177Y344000D01*
Y367194D01*
X133557D01*
X133834Y367034D01*
X134535Y366846D01*
X135260D01*
X135961Y367034D01*
X136590Y367397D01*
X137103Y367910D01*
X137466Y368539D01*
X137654Y369239D01*
Y369965D01*
X137466Y370666D01*
X137103Y371294D01*
X136590Y371808D01*
X135961Y372170D01*
X135260Y372358D01*
X134535D01*
X133834Y372170D01*
X133557Y372011D01*
X123177D01*
Y386694D01*
X123068Y387516D01*
X122751Y388282D01*
X122246Y388940D01*
X119940Y391246D01*
X119282Y391751D01*
X118516Y392069D01*
X117694Y392177D01*
X110491D01*
X110250Y392209D01*
D02*
G37*
G36*
X203718Y379756D02*
X202992D01*
X202291Y379568D01*
X201663Y379205D01*
X201150Y378692D01*
X200787Y378064D01*
X200599Y377363D01*
Y376637D01*
X200787Y375936D01*
X201150Y375308D01*
X201663Y374795D01*
X202291Y374432D01*
X202992Y374244D01*
X203718D01*
X204419Y374432D01*
X205047Y374795D01*
X205446Y375194D01*
X265512D01*
X271874Y368831D01*
Y368267D01*
X272062Y367566D01*
X272425Y366938D01*
X272938Y366425D01*
X273566Y366062D01*
X274267Y365874D01*
X274993D01*
X275694Y366062D01*
X276322Y366425D01*
X276835Y366938D01*
X277198Y367566D01*
X277386Y368267D01*
Y368993D01*
X277198Y369694D01*
X276835Y370322D01*
X276322Y370835D01*
X275694Y371198D01*
X274993Y371386D01*
X274429D01*
X267537Y378277D01*
X266951Y378669D01*
X266260Y378806D01*
X205446D01*
X205047Y379205D01*
X204419Y379568D01*
X203718Y379756D01*
D02*
G37*
G36*
X140900Y395369D02*
X139743Y395217D01*
X138665Y394771D01*
X137740Y394060D01*
X137029Y393135D01*
X136583Y392057D01*
X136431Y390900D01*
Y389900D01*
X136583Y388743D01*
X137029Y387665D01*
X137740Y386740D01*
X137979Y386556D01*
X137810Y386056D01*
X137537D01*
X136836Y385868D01*
X136208Y385505D01*
X135695Y384992D01*
X135332Y384364D01*
X135144Y383663D01*
Y382937D01*
X135332Y382236D01*
X135695Y381608D01*
X136208Y381095D01*
X136836Y380732D01*
X137537Y380544D01*
X138210D01*
X138304Y380494D01*
X138614Y380121D01*
X138545Y379863D01*
Y379137D01*
X138733Y378436D01*
X139096Y377808D01*
X139609Y377295D01*
X140237Y376932D01*
X140938Y376744D01*
X141502D01*
X142194Y376053D01*
Y368999D01*
X139622Y366428D01*
X139058D01*
X138357Y366240D01*
X137729Y365877D01*
X137216Y365364D01*
X136853Y364736D01*
X136665Y364035D01*
Y363309D01*
X136853Y362608D01*
X137216Y361980D01*
X137729Y361467D01*
X138357Y361104D01*
X139058Y360916D01*
X139784D01*
X140485Y361104D01*
X141113Y361467D01*
X141626Y361980D01*
X141989Y362608D01*
X142177Y363309D01*
Y363873D01*
X145277Y366974D01*
X145669Y367560D01*
X145806Y368251D01*
Y376801D01*
X145669Y377492D01*
X145277Y378078D01*
X144057Y379299D01*
Y379863D01*
X143869Y380564D01*
X143621Y380994D01*
X143872Y381494D01*
X150429D01*
X150680Y380994D01*
X150432Y380564D01*
X150244Y379863D01*
Y379137D01*
X150432Y378436D01*
X150795Y377808D01*
X151194Y377409D01*
Y371591D01*
X150795Y371192D01*
X150432Y370564D01*
X150244Y369863D01*
Y369137D01*
X150432Y368436D01*
X150795Y367808D01*
X151308Y367295D01*
X151936Y366932D01*
X152637Y366744D01*
X153363D01*
X154064Y366932D01*
X154692Y367295D01*
X155205Y367808D01*
X155568Y368436D01*
X155756Y369137D01*
Y369863D01*
X155568Y370564D01*
X155205Y371192D01*
X154806Y371591D01*
Y377409D01*
X155205Y377808D01*
X155568Y378436D01*
X155756Y379137D01*
Y379482D01*
X156256Y379690D01*
X166844Y369101D01*
Y368637D01*
X167032Y367936D01*
X167395Y367308D01*
X167908Y366795D01*
X168536Y366432D01*
X169237Y366244D01*
X169209Y365756D01*
X169037D01*
X168336Y365568D01*
X167708Y365205D01*
X167309Y364806D01*
X163800D01*
X163109Y364669D01*
X162523Y364277D01*
X158601Y360356D01*
X158037D01*
X157336Y360168D01*
X156708Y359805D01*
X156195Y359292D01*
X155832Y358664D01*
X155644Y357963D01*
Y357237D01*
X155832Y356536D01*
X156195Y355908D01*
X156708Y355395D01*
X157336Y355032D01*
X158037Y354844D01*
X158763D01*
X159464Y355032D01*
X160092Y355395D01*
X160605Y355908D01*
X160968Y356536D01*
X161156Y357237D01*
Y357801D01*
X164548Y361194D01*
X167309D01*
X167708Y360795D01*
X168336Y360432D01*
X169037Y360244D01*
X169763D01*
X170464Y360432D01*
X171092Y360795D01*
X171605Y361308D01*
X171968Y361936D01*
X172156Y362637D01*
Y363363D01*
X171968Y364064D01*
X171605Y364692D01*
X171092Y365205D01*
X170464Y365568D01*
X169763Y365756D01*
X169791Y366244D01*
X169963D01*
X170664Y366432D01*
X171292Y366795D01*
X171805Y367308D01*
X172168Y367936D01*
X172356Y368637D01*
Y369363D01*
X172168Y370064D01*
X171805Y370692D01*
X171292Y371205D01*
X170664Y371568D01*
X169963Y371756D01*
X169299D01*
X158077Y382977D01*
X158077Y382977D01*
X156477Y384577D01*
X155891Y384969D01*
X155200Y385106D01*
X142155D01*
X142057Y385583D01*
X143135Y386029D01*
X144060Y386740D01*
X144771Y387665D01*
X145217Y388743D01*
X145369Y389900D01*
Y390900D01*
X145217Y392057D01*
X144771Y393135D01*
X144060Y394060D01*
X143135Y394771D01*
X142057Y395217D01*
X140900Y395369D01*
D02*
G37*
G36*
X111453Y349745D02*
X105547D01*
X104674Y349630D01*
X103860Y349293D01*
X103161Y348757D01*
X102624Y348058D01*
X102287Y347244D01*
X102172Y346370D01*
X102287Y345497D01*
X102624Y344682D01*
X103161Y343983D01*
X103860Y343447D01*
X104674Y343110D01*
X105547Y342995D01*
X111453D01*
X112326Y343110D01*
X113140Y343447D01*
X113839Y343983D01*
X114376Y344682D01*
X114713Y345497D01*
X114828Y346370D01*
X114713Y347244D01*
X114376Y348058D01*
X113839Y348757D01*
X113140Y349293D01*
X112326Y349630D01*
X111453Y349745D01*
D02*
G37*
G36*
X128850Y341858D02*
X127913D01*
X127008Y341616D01*
X126197Y341147D01*
X125534Y340484D01*
X125065Y339673D01*
X124823Y338768D01*
X124585Y338586D01*
X124126Y338709D01*
X123189D01*
X122284Y338466D01*
X121472Y337998D01*
X120809Y337335D01*
X120341Y336523D01*
X120098Y335618D01*
Y334681D01*
X120341Y333776D01*
X120809Y332964D01*
X121472Y332302D01*
X121562Y332250D01*
Y331750D01*
X121472Y331698D01*
X120809Y331036D01*
X120341Y330224D01*
X120098Y329319D01*
Y328382D01*
X120341Y327477D01*
X120809Y326665D01*
X121472Y326002D01*
X122284Y325534D01*
X123189Y325291D01*
X124126D01*
X124743Y325457D01*
X125004Y325256D01*
X125234Y324397D01*
X125679Y323627D01*
X126308Y322998D01*
X127078Y322553D01*
X127594Y322415D01*
Y325701D01*
X128382D01*
Y326488D01*
X131668D01*
X131530Y327005D01*
X131085Y327775D01*
X130456Y328404D01*
X130297Y328496D01*
Y328996D01*
X130567Y329152D01*
X131230Y329815D01*
X131698Y330626D01*
X131941Y331531D01*
Y332469D01*
X131698Y333374D01*
X131230Y334185D01*
X130793Y334622D01*
X131000Y335122D01*
X132385D01*
X149754Y317754D01*
X150412Y317249D01*
X151178Y316932D01*
X152000Y316823D01*
X172090D01*
X172116Y316790D01*
X172823Y316082D01*
Y314000D01*
X172850Y313794D01*
Y313585D01*
X172904Y313384D01*
X172932Y313178D01*
X173011Y312985D01*
X173065Y312784D01*
X173169Y312604D01*
X173249Y312412D01*
X173376Y312246D01*
X173480Y312066D01*
X173627Y311919D01*
X173754Y311754D01*
X173919Y311627D01*
X174066Y311480D01*
X174246Y311376D01*
X174412Y311249D01*
X174604Y311169D01*
X174784Y311065D01*
X174985Y311011D01*
X175178Y310931D01*
X175384Y310904D01*
X175585Y310850D01*
X175794D01*
X176000Y310823D01*
X176206Y310850D01*
X176415D01*
X176616Y310904D01*
X176822Y310931D01*
X177015Y311011D01*
X177216Y311065D01*
X177396Y311169D01*
X177588Y311249D01*
X177754Y311376D01*
X177934Y311480D01*
X178081Y311627D01*
X178246Y311754D01*
X178373Y311919D01*
X178520Y312066D01*
X178624Y312246D01*
X178751Y312412D01*
X178831Y312604D01*
X178935Y312784D01*
X178989Y312985D01*
X179069Y313178D01*
X179096Y313384D01*
X179150Y313585D01*
Y313794D01*
X179177Y314000D01*
Y317398D01*
X179069Y318220D01*
X178751Y318987D01*
X178246Y319644D01*
X177155Y320736D01*
X177113Y320836D01*
X176987Y321002D01*
X176883Y321182D01*
X176735Y321329D01*
X176609Y321494D01*
X176443Y321621D01*
X176296Y321768D01*
X176116Y321872D01*
X175951Y321999D01*
X175850Y322041D01*
X175644Y322246D01*
X174987Y322751D01*
X174220Y323068D01*
X173398Y323177D01*
X165806D01*
Y328909D01*
X166205Y329308D01*
X166568Y329936D01*
X166756Y330637D01*
Y331363D01*
X166568Y332064D01*
X166205Y332692D01*
X165692Y333205D01*
X165064Y333568D01*
X164363Y333756D01*
X163637D01*
X162936Y333568D01*
X162308Y333205D01*
X161795Y332692D01*
X161432Y332064D01*
X161244Y331363D01*
Y330637D01*
X161432Y329936D01*
X161795Y329308D01*
X162194Y328909D01*
Y323177D01*
X153316D01*
X135947Y340546D01*
X135289Y341050D01*
X134523Y341368D01*
X133701Y341476D01*
X129998D01*
X129756Y341616D01*
X128850Y341858D01*
D02*
G37*
G36*
X289363Y361756D02*
X288637D01*
X287936Y361568D01*
X287308Y361205D01*
X286795Y360692D01*
X286432Y360064D01*
X286244Y359363D01*
Y358656D01*
X286022Y358434D01*
X285587Y357783D01*
X285434Y357015D01*
Y342331D01*
X285236Y342133D01*
X284873Y341505D01*
X284685Y340804D01*
Y340078D01*
X284873Y339377D01*
X285236Y338749D01*
X285749Y338236D01*
X286377Y337873D01*
X287078Y337685D01*
X287804D01*
X288505Y337873D01*
X289133Y338236D01*
X289646Y338749D01*
X290009Y339377D01*
X290197Y340078D01*
Y340804D01*
X290009Y341505D01*
X289646Y342133D01*
X289448Y342331D01*
Y356183D01*
X289562Y356297D01*
X290064Y356432D01*
X290692Y356795D01*
X291205Y357308D01*
X291568Y357936D01*
X291756Y358637D01*
Y359363D01*
X291568Y360064D01*
X291205Y360692D01*
X290692Y361205D01*
X290064Y361568D01*
X289363Y361756D01*
D02*
G37*
G36*
X344393Y365981D02*
X343212D01*
X342133Y365839D01*
X341127Y365422D01*
X340264Y364759D01*
X339601Y363896D01*
X339184Y362890D01*
X339042Y361811D01*
X339184Y360732D01*
X339601Y359726D01*
X340264Y358863D01*
X341127Y358200D01*
X341311Y358124D01*
Y357624D01*
X341127Y357548D01*
X340264Y356885D01*
X339601Y356022D01*
X339184Y355016D01*
X339042Y353937D01*
X339184Y352858D01*
X339601Y351852D01*
X340264Y350989D01*
X341127Y350326D01*
X341311Y350250D01*
Y349750D01*
X341127Y349674D01*
X340264Y349011D01*
X339601Y348148D01*
X339184Y347142D01*
X339042Y346063D01*
X339184Y344984D01*
X339601Y343978D01*
X340264Y343115D01*
X341127Y342452D01*
X341311Y342376D01*
Y341876D01*
X341127Y341800D01*
X340264Y341137D01*
X339601Y340274D01*
X339184Y339268D01*
X339042Y338189D01*
X339184Y337110D01*
X339601Y336104D01*
X340264Y335241D01*
X341127Y334578D01*
X342133Y334161D01*
X343212Y334019D01*
X344393D01*
X345472Y334161D01*
X346478Y334578D01*
X347341Y335241D01*
X348004Y336104D01*
X348421Y337110D01*
X348563Y338189D01*
X348421Y339268D01*
X348004Y340274D01*
X347341Y341137D01*
X346478Y341800D01*
X346294Y341876D01*
Y342376D01*
X346478Y342452D01*
X347341Y343115D01*
X348004Y343978D01*
X348421Y344984D01*
X348563Y346063D01*
X348421Y347142D01*
X348004Y348148D01*
X347341Y349011D01*
X346478Y349674D01*
X346294Y349750D01*
Y350250D01*
X346478Y350326D01*
X347341Y350989D01*
X348004Y351852D01*
X348421Y352858D01*
X348563Y353937D01*
X348421Y355016D01*
X348004Y356022D01*
X347341Y356885D01*
X346478Y357548D01*
X346294Y357624D01*
Y358124D01*
X346478Y358200D01*
X347341Y358863D01*
X348004Y359726D01*
X348421Y360732D01*
X348563Y361811D01*
X348421Y362890D01*
X348004Y363896D01*
X347341Y364759D01*
X346478Y365422D01*
X345472Y365839D01*
X344393Y365981D01*
D02*
G37*
G36*
X319500Y338469D02*
X318500D01*
X317343Y338317D01*
X316265Y337871D01*
X315340Y337160D01*
X314629Y336235D01*
X314183Y335157D01*
X314031Y334000D01*
X314183Y332843D01*
X314629Y331765D01*
X315340Y330840D01*
X316265Y330129D01*
X317343Y329683D01*
X318500Y329531D01*
X319500D01*
X320657Y329683D01*
X321735Y330129D01*
X322660Y330840D01*
X323371Y331765D01*
X323817Y332843D01*
X323969Y334000D01*
X323817Y335157D01*
X323371Y336235D01*
X322660Y337160D01*
X321735Y337871D01*
X320657Y338317D01*
X319500Y338469D01*
D02*
G37*
G36*
X131668Y324913D02*
X129169D01*
Y322415D01*
X129686Y322553D01*
X130456Y322998D01*
X131085Y323627D01*
X131530Y324397D01*
X131668Y324913D01*
D02*
G37*
G36*
X319500Y328469D02*
X318500D01*
X317343Y328317D01*
X316265Y327871D01*
X315340Y327160D01*
X314629Y326235D01*
X314183Y325157D01*
X314031Y324000D01*
X314183Y322843D01*
X314629Y321765D01*
X315340Y320840D01*
X316265Y320129D01*
X317343Y319683D01*
X318500Y319531D01*
X319500D01*
X320657Y319683D01*
X321735Y320129D01*
X322660Y320840D01*
X323371Y321765D01*
X323817Y322843D01*
X323969Y324000D01*
X323817Y325157D01*
X323371Y326235D01*
X322660Y327160D01*
X321735Y327871D01*
X320657Y328317D01*
X319500Y328469D01*
D02*
G37*
G36*
X111453Y321005D02*
X105547D01*
X104674Y320890D01*
X103860Y320553D01*
X103161Y320017D01*
X102624Y319318D01*
X102287Y318503D01*
X102172Y317630D01*
X102287Y316756D01*
X102624Y315942D01*
X103161Y315243D01*
X103860Y314707D01*
X104674Y314370D01*
X105547Y314255D01*
X111453D01*
X112326Y314370D01*
X113140Y314707D01*
X113839Y315243D01*
X114376Y315942D01*
X114713Y316756D01*
X114828Y317630D01*
X114713Y318503D01*
X114376Y319318D01*
X113839Y320017D01*
X113140Y320553D01*
X112326Y320890D01*
X111453Y321005D01*
D02*
G37*
G36*
X227363Y345756D02*
X226637D01*
X225936Y345568D01*
X225308Y345205D01*
X224795Y344692D01*
X224432Y344064D01*
X224244Y343363D01*
Y342637D01*
X224432Y341936D01*
X224795Y341308D01*
X224993Y341110D01*
Y321044D01*
X225146Y320276D01*
X225581Y319625D01*
X231962Y313244D01*
X231847Y312968D01*
X231692Y311786D01*
Y310605D01*
X231847Y309423D01*
X232304Y308321D01*
X233029Y307376D01*
X233975Y306650D01*
X235076Y306194D01*
X236258Y306038D01*
X237440Y306194D01*
X238542Y306650D01*
X239487Y307376D01*
X240213Y308321D01*
X240669Y309423D01*
X240825Y310605D01*
Y311786D01*
X240669Y312968D01*
X240213Y314069D01*
X239487Y315015D01*
X238542Y315741D01*
X237440Y316197D01*
X236258Y316353D01*
X235076Y316197D01*
X234800Y316082D01*
X229007Y321876D01*
Y341110D01*
X229205Y341308D01*
X229568Y341936D01*
X229756Y342637D01*
Y343363D01*
X229568Y344064D01*
X229205Y344692D01*
X228692Y345205D01*
X228064Y345568D01*
X227363Y345756D01*
D02*
G37*
G36*
X195889Y301962D02*
X195644Y301897D01*
X195035Y301545D01*
X194537Y301047D01*
X194185Y300437D01*
X194120Y300193D01*
X195889D01*
Y301962D01*
D02*
G37*
G36*
X268100Y307569D02*
X267100D01*
X265943Y307417D01*
X264865Y306971D01*
X263940Y306260D01*
X263229Y305335D01*
X262783Y304257D01*
X262631Y303100D01*
X262783Y301943D01*
X263229Y300865D01*
X263940Y299940D01*
X264865Y299229D01*
X265943Y298783D01*
X267100Y298631D01*
X268100D01*
X269257Y298783D01*
X270335Y299229D01*
X271260Y299940D01*
X271971Y300865D01*
X272417Y301943D01*
X272569Y303100D01*
X272417Y304257D01*
X271971Y305335D01*
X271260Y306260D01*
X270335Y306971D01*
X269257Y307417D01*
X268100Y307569D01*
D02*
G37*
G36*
X111000Y305569D02*
X110000D01*
X108843Y305417D01*
X107765Y304971D01*
X106840Y304260D01*
X106129Y303335D01*
X105683Y302257D01*
X105531Y301100D01*
X105683Y299943D01*
X106129Y298865D01*
X106840Y297940D01*
X107765Y297229D01*
X108843Y296783D01*
X110000Y296631D01*
X111000D01*
X112157Y296783D01*
X113235Y297229D01*
X114160Y297940D01*
X114871Y298865D01*
X115317Y299943D01*
X115469Y301100D01*
X115317Y302257D01*
X114871Y303335D01*
X114160Y304260D01*
X113235Y304971D01*
X112157Y305417D01*
X111000Y305569D01*
D02*
G37*
G36*
X268387Y297349D02*
Y293887D01*
X272283D01*
X272241Y294210D01*
X271812Y295243D01*
X271131Y296131D01*
X270243Y296812D01*
X269210Y297241D01*
X268387Y297349D01*
D02*
G37*
G36*
X266813D02*
X265990Y297241D01*
X264957Y296812D01*
X264069Y296131D01*
X263388Y295243D01*
X262959Y294210D01*
X262917Y293887D01*
X266813D01*
Y297349D01*
D02*
G37*
G36*
X111287Y295349D02*
Y291887D01*
X115183D01*
X115141Y292210D01*
X114712Y293243D01*
X114031Y294131D01*
X113143Y294812D01*
X112109Y295241D01*
X111287Y295349D01*
D02*
G37*
G36*
X109713D02*
X108890Y295241D01*
X107857Y294812D01*
X106969Y294131D01*
X106288Y293243D01*
X105859Y292210D01*
X105817Y291887D01*
X109713D01*
Y295349D01*
D02*
G37*
G36*
X272283Y292313D02*
X268387D01*
Y288851D01*
X269210Y288959D01*
X270243Y289388D01*
X271131Y290069D01*
X271812Y290957D01*
X272241Y291990D01*
X272283Y292313D01*
D02*
G37*
G36*
X266813D02*
X262917D01*
X262959Y291990D01*
X263388Y290957D01*
X264069Y290069D01*
X264957Y289388D01*
X265990Y288959D01*
X266813Y288851D01*
Y292313D01*
D02*
G37*
G36*
X115183Y290313D02*
X111287D01*
Y286851D01*
X112109Y286959D01*
X113143Y287388D01*
X114031Y288069D01*
X114712Y288957D01*
X115141Y289990D01*
X115183Y290313D01*
D02*
G37*
G36*
X109713D02*
X105817D01*
X105859Y289990D01*
X106288Y288957D01*
X106969Y288069D01*
X107857Y287388D01*
X108890Y286959D01*
X109713Y286851D01*
Y290313D01*
D02*
G37*
G36*
X236258Y290762D02*
X235076Y290606D01*
X233975Y290150D01*
X233029Y289424D01*
X232304Y288479D01*
X231847Y287377D01*
X231692Y286195D01*
Y285014D01*
X231847Y283832D01*
X232304Y282731D01*
X233029Y281785D01*
X233975Y281059D01*
X235076Y280603D01*
X236258Y280448D01*
X237440Y280603D01*
X238542Y281059D01*
X239487Y281785D01*
X240213Y282731D01*
X240669Y283832D01*
X240825Y285014D01*
Y286195D01*
X240669Y287377D01*
X240213Y288479D01*
X239487Y289424D01*
X238542Y290150D01*
X237440Y290606D01*
X236258Y290762D01*
D02*
G37*
G36*
X347198Y293287D02*
X345802D01*
X344433Y293014D01*
X343143Y292480D01*
X341983Y291705D01*
X340996Y290718D01*
X340220Y289557D01*
X339686Y288267D01*
X339413Y286898D01*
Y285502D01*
X339686Y284133D01*
X340220Y282843D01*
X340996Y281682D01*
X341983Y280696D01*
X343143Y279920D01*
X344433Y279386D01*
X345802Y279113D01*
X347198D01*
X348567Y279386D01*
X349857Y279920D01*
X351017Y280696D01*
X352005Y281682D01*
X352780Y282843D01*
X353314Y284133D01*
X353587Y285502D01*
Y286898D01*
X353314Y288267D01*
X352780Y289557D01*
X352005Y290718D01*
X351017Y291705D01*
X349857Y292480D01*
X348567Y293014D01*
X347198Y293287D01*
D02*
G37*
%LPD*%
G36*
X168000Y307000D02*
Y282000D01*
X166000Y280000D01*
X134000D01*
X132000Y282000D01*
Y307000D01*
X134000Y309000D01*
X166000D01*
X168000Y307000D01*
D02*
G37*
D59*
X120000Y370000D02*
X120398Y369602D01*
X134898D01*
D60*
X289000Y358574D02*
Y359000D01*
X287441Y340441D02*
Y357015D01*
X289000Y358574D01*
X185000Y306000D02*
Y321000D01*
X178000Y328000D02*
X185000Y321000D01*
X179000Y300000D02*
X185000Y306000D01*
X166000Y300000D02*
X179000D01*
X227000Y321044D02*
X236258Y311786D01*
Y311195D02*
Y311786D01*
X227000Y321044D02*
Y343000D01*
D61*
X203355Y377000D02*
X266260D01*
X274630Y368630D01*
X156800Y381700D02*
X169500Y369000D01*
X169600D01*
X156800Y381700D02*
Y381700D01*
X155200Y383300D02*
X156800Y381700D01*
X137900Y383300D02*
X155200D01*
X163800Y363000D02*
X169400D01*
X144000Y368251D02*
Y376801D01*
X141301Y379500D02*
X144000Y376801D01*
X158400Y357600D02*
X163800Y363000D01*
X219521Y300688D02*
X240088D01*
X218542Y285605D02*
Y299708D01*
X219521Y300688D01*
X215000Y303700D02*
X253967D01*
X255867Y305600D02*
X256400D01*
X253967Y303700D02*
X255867Y305600D01*
X210041Y292041D02*
Y326068D01*
X210000Y362000D02*
X210039Y361961D01*
X210041Y326068D02*
X210078Y326106D01*
X210039Y326145D02*
Y361961D01*
Y326145D02*
X210078Y326106D01*
X207405Y289405D02*
X210041Y292041D01*
X201677Y289405D02*
X207405D01*
X201176Y294589D02*
X204589D01*
X208000Y298000D01*
Y310000D01*
X178783Y339217D02*
X208000Y310000D01*
X173909Y338091D02*
X201628Y310372D01*
Y299314D02*
Y310372D01*
X170435Y341565D02*
Y348565D01*
X173909Y338091D02*
Y338091D01*
X170435Y341565D02*
X173909Y338091D01*
X164000Y320000D02*
Y331000D01*
X153000Y369500D02*
Y379500D01*
X139421Y363672D02*
X144000Y368251D01*
D62*
X120000Y370000D02*
Y386694D01*
Y344000D02*
Y370000D01*
X164000Y320000D02*
X173398D01*
X152000D02*
X164000D01*
X174362Y319036D02*
Y319248D01*
X173398Y320000D02*
X174256Y319142D01*
X176000Y314000D02*
Y317398D01*
X174362Y319036D02*
X176000Y317398D01*
X133701Y338299D02*
X152000Y320000D01*
X128382Y338299D02*
X133701D01*
X116000Y326000D02*
Y340000D01*
Y326000D02*
X138426Y303574D01*
X116000Y340000D02*
X120000Y344000D01*
X117694Y389000D02*
X120000Y386694D01*
X109500Y389000D02*
X117694D01*
D64*
X110500Y301100D02*
D03*
Y291100D02*
D03*
X319000Y334000D02*
D03*
Y324000D02*
D03*
X267600Y293100D02*
D03*
Y303100D02*
D03*
D65*
X346500Y286200D02*
D03*
X197700Y392700D02*
D03*
D66*
X218542Y285605D02*
D03*
Y311195D02*
D03*
X236258Y285605D02*
D03*
Y311195D02*
D03*
D67*
X201677Y289405D02*
D03*
X196676D02*
D03*
Y299406D02*
D03*
Y294404D02*
D03*
X201677D02*
D03*
Y299406D02*
D03*
D68*
X128382Y332000D02*
D03*
Y325701D02*
D03*
X123658Y335150D02*
D03*
Y328850D02*
D03*
X128382Y338299D02*
D03*
D69*
X108500Y317630D02*
D03*
Y346370D02*
D03*
D70*
X109500Y374000D02*
D03*
D71*
Y379000D02*
D03*
Y384000D02*
D03*
Y389000D02*
D03*
D72*
X150900Y390400D02*
D03*
X140900D02*
D03*
D73*
X343802Y338189D02*
D03*
Y346063D02*
D03*
Y353937D02*
D03*
Y361811D02*
D03*
D74*
X338583Y314961D02*
D03*
X311024Y334646D02*
D03*
X299213D02*
D03*
X275590Y311024D02*
D03*
X338583Y370079D02*
D03*
X311024Y366142D02*
D03*
X295276D02*
D03*
X263779Y385827D02*
D03*
X228346Y389764D02*
D03*
X212598Y397638D02*
D03*
X244094D02*
D03*
X275590D02*
D03*
X299213D02*
D03*
X322835D02*
D03*
X342520D02*
D03*
X354331Y385827D02*
D03*
Y366142D02*
D03*
Y342520D02*
D03*
Y322835D02*
D03*
Y303150D02*
D03*
X334646Y295276D02*
D03*
X323000Y281000D02*
D03*
X283465Y279528D02*
D03*
X267717D02*
D03*
X248031D02*
D03*
X208661D02*
D03*
X192913D02*
D03*
X177165D02*
D03*
X125984D02*
D03*
X110236D02*
D03*
X132000Y320000D02*
D03*
X138000Y312000D02*
D03*
X157000D02*
D03*
X158798Y350739D02*
D03*
X159692Y339501D02*
D03*
X147048Y338990D02*
D03*
X141174Y343332D02*
D03*
X175000Y374000D02*
D03*
X169000Y378000D02*
D03*
X181000Y393000D02*
D03*
X170000D02*
D03*
X231000Y362000D02*
D03*
X258000Y363000D02*
D03*
X256000Y371000D02*
D03*
X228000D02*
D03*
X206000Y342000D02*
D03*
X202756Y326423D02*
D03*
X189500Y359000D02*
D03*
X196000Y353000D02*
D03*
Y365000D02*
D03*
X183000D02*
D03*
X172000Y327000D02*
D03*
X178000Y328000D02*
D03*
X274630Y368630D02*
D03*
X203355Y377000D02*
D03*
X227000Y343000D02*
D03*
X289000Y359000D02*
D03*
X287441Y340441D02*
D03*
X169600Y369000D02*
D03*
X169400Y363000D02*
D03*
X137900Y383300D02*
D03*
X141301Y379500D02*
D03*
X158400Y357600D02*
D03*
X240088Y300688D02*
D03*
X256400Y305600D02*
D03*
X215000Y303700D02*
D03*
X210078Y326350D02*
D03*
X210000Y362000D02*
D03*
X178783Y339217D02*
D03*
X170435Y348565D02*
D03*
X164000Y331000D02*
D03*
X153000Y379500D02*
D03*
X139945Y375000D02*
D03*
X139421Y363672D02*
D03*
X153000Y369500D02*
D03*
X134898Y369602D02*
D03*
D75*
X176000Y314000D02*
D03*
X174362Y319248D02*
D03*
X145000Y295000D02*
D03*
Y290000D02*
D03*
Y300000D02*
D03*
X140000Y295000D02*
D03*
X135000D02*
D03*
M02*
