G04*
G04 #@! TF.GenerationSoftware,Altium Limited,Altium Designer,21.0.8 (223)*
G04*
G04 Layer_Color=16711935*
%FSLAX25Y25*%
%MOIN*%
G70*
G04*
G04 #@! TF.SameCoordinates,76373615-CB27-452B-AC01-166D02EDBD73*
G04*
G04*
G04 #@! TF.FilePolarity,Negative*
G04*
G01*
G75*
%ADD49O,0.08300X0.07300*%
%ADD50C,0.12611*%
%ADD51O,0.07493X0.08674*%
%ADD52C,0.04147*%
%ADD53C,0.05556*%
%ADD54O,0.11036X0.05131*%
G04:AMPARAMS|DCode=55|XSize=63mil|YSize=48mil|CornerRadius=0mil|HoleSize=0mil|Usage=FLASHONLY|Rotation=0.000|XOffset=0mil|YOffset=0mil|HoleType=Round|Shape=Octagon|*
%AMOCTAGOND55*
4,1,8,0.03150,-0.01200,0.03150,0.01200,0.01950,0.02400,-0.01950,0.02400,-0.03150,0.01200,-0.03150,-0.01200,-0.01950,-0.02400,0.01950,-0.02400,0.03150,-0.01200,0.0*
%
%ADD55OCTAGOND55*%

%ADD56O,0.06300X0.04800*%
%ADD57O,0.07300X0.08300*%
%ADD58O,0.07887X0.06706*%
D49*
X110500Y301100D02*
D03*
Y291100D02*
D03*
X319000Y334000D02*
D03*
Y324000D02*
D03*
X267600Y293100D02*
D03*
Y303100D02*
D03*
D50*
X346500Y286200D02*
D03*
X197700Y392700D02*
D03*
D51*
X218542Y285605D02*
D03*
Y311195D02*
D03*
X236258Y285605D02*
D03*
Y311195D02*
D03*
D52*
X201677Y289405D02*
D03*
X196676D02*
D03*
Y299406D02*
D03*
Y294404D02*
D03*
X201677D02*
D03*
Y299406D02*
D03*
D53*
X128382Y332000D02*
D03*
Y325701D02*
D03*
X123658Y335150D02*
D03*
Y328850D02*
D03*
X128382Y338299D02*
D03*
D54*
X108500Y317630D02*
D03*
Y346370D02*
D03*
D55*
X109500Y374000D02*
D03*
D56*
Y379000D02*
D03*
Y384000D02*
D03*
Y389000D02*
D03*
D57*
X150900Y390400D02*
D03*
X140900D02*
D03*
D58*
X343802Y338189D02*
D03*
Y346063D02*
D03*
Y353937D02*
D03*
Y361811D02*
D03*
M02*
