M48
;Layer_Color=9474304
;FILE_FORMAT=2:5
INCH,LZ
;TYPE=PLATED
T1F00S00C0.01575
T2F00S00C0.01968
T3F00S00C0.02500
T4F00S00C0.02756
T5F00S00C0.03150
T6F00S00C0.03500
T8F00S00C0.03937
T9F00S00C0.08661
%
T01
X0323Y0281
X0334646Y0295276
X0354331Y030315
X027559Y0311024
X02564Y03056
X0240088Y0300688
X0215Y03037
X0208661Y0279528
X0192913
X0177165
X0157Y0312
X0248031Y0279528
X0267717
X0283465
X0125984
X0110236
X0138Y0312
X0132Y032
X0141174Y0343332
X0147048Y033899
X0139421Y0363672
X0134898Y0369602
X0139945Y0375
X0141301Y03795
X01379Y03833
X0153Y03795
Y03695
X01696Y0369
X01694Y0363
X0169Y0378
X0175Y0374
X0183Y0365
X01895Y0359
X0196Y0353
Y0365
X021Y0362
X0231
X0228Y0371
X0228346Y0389764
X0212598Y0397638
X0203355Y0377
X0206Y0342
X0202756Y0326423
X0210078Y032635
X0227Y0343
X0258Y0363
X0256Y0371
X027463Y036863
X0295276Y0366142
X0289Y0359
X0287441Y0340441
X0299213Y0334646
X0311024
Y0366142
X0299213Y0397638
X027559
X0263779Y0385827
X0244094Y0397638
X0181Y0393
X017
X0170435Y0348565
X0158798Y0350739
X01584Y03576
X0159692Y0339501
X0164Y0331
X0172Y0327
X0178Y0328
X0178783Y0339217
X0354331Y034252
Y0322835
X0338583Y0314961
Y0370079
X0354331Y0366142
Y0385827
X034252Y0397638
X0322835
T02
X0196676Y0289405
Y0294404
X0201677
Y0289405
Y0299406
X0196676
X0145Y03
Y0295
Y029
X014Y0295
X0135
X0176Y0314
X0174362Y0319248
T03
X01095Y0374
Y0379
Y0384
Y0389
T04
X0123658Y032885
Y033515
X0128382Y0338299
Y0332
Y0325701
T05
X0343802Y0338189
Y0346063
Y0353937
Y0361811
T06
X02676Y02931
Y03031
X01105Y03011
Y02911
X01409Y03904
X01509
X0319Y0334
Y0324
T08
X0218542Y0285605
X0236258
Y0311195
X0218542
T09
X03465Y02862
X01977Y03927
M30
