G04*
G04 #@! TF.GenerationSoftware,Altium Limited,Altium Designer,21.0.8 (223)*
G04*
G04 Layer_Physical_Order=1*
G04 Layer_Color=255*
%FSLAX25Y25*%
%MOIN*%
G70*
G04*
G04 #@! TF.SameCoordinates,76373615-CB27-452B-AC01-166D02EDBD73*
G04*
G04*
G04 #@! TF.FilePolarity,Positive*
G04*
G01*
G75*
%ADD13C,0.03150*%
%ADD14C,0.00787*%
%ADD21R,0.03347X0.03347*%
%ADD22R,0.05900X0.03300*%
%ADD23R,0.03347X0.03347*%
G04:AMPARAMS|DCode=24|XSize=55.12mil|YSize=47.24mil|CornerRadius=5.91mil|HoleSize=0mil|Usage=FLASHONLY|Rotation=270.000|XOffset=0mil|YOffset=0mil|HoleType=Round|Shape=RoundedRectangle|*
%AMROUNDEDRECTD24*
21,1,0.05512,0.03543,0,0,270.0*
21,1,0.04331,0.04724,0,0,270.0*
1,1,0.01181,-0.01772,-0.02165*
1,1,0.01181,-0.01772,0.02165*
1,1,0.01181,0.01772,0.02165*
1,1,0.01181,0.01772,-0.02165*
%
%ADD24ROUNDEDRECTD24*%
G04:AMPARAMS|DCode=25|XSize=185.04mil|YSize=185.04mil|CornerRadius=9.25mil|HoleSize=0mil|Usage=FLASHONLY|Rotation=180.000|XOffset=0mil|YOffset=0mil|HoleType=Round|Shape=RoundedRectangle|*
%AMROUNDEDRECTD25*
21,1,0.18504,0.16654,0,0,180.0*
21,1,0.16654,0.18504,0,0,180.0*
1,1,0.01850,-0.08327,0.08327*
1,1,0.01850,0.08327,0.08327*
1,1,0.01850,0.08327,-0.08327*
1,1,0.01850,-0.08327,-0.08327*
%
%ADD25ROUNDEDRECTD25*%
%ADD26O,0.00984X0.03150*%
%ADD27O,0.03150X0.00984*%
G04:AMPARAMS|DCode=28|XSize=11.81mil|YSize=31.5mil|CornerRadius=1.48mil|HoleSize=0mil|Usage=FLASHONLY|Rotation=180.000|XOffset=0mil|YOffset=0mil|HoleType=Round|Shape=RoundedRectangle|*
%AMROUNDEDRECTD28*
21,1,0.01181,0.02854,0,0,180.0*
21,1,0.00886,0.03150,0,0,180.0*
1,1,0.00295,-0.00443,0.01427*
1,1,0.00295,0.00443,0.01427*
1,1,0.00295,0.00443,-0.01427*
1,1,0.00295,-0.00443,-0.01427*
%
%ADD28ROUNDEDRECTD28*%
%ADD29R,0.03150X0.01181*%
%ADD30R,0.04000X0.06000*%
%ADD31R,0.09449X0.12992*%
%ADD32R,0.09449X0.03937*%
%ADD33O,0.07480X0.02362*%
G04:AMPARAMS|DCode=34|XSize=23.62mil|YSize=55.12mil|CornerRadius=2.36mil|HoleSize=0mil|Usage=FLASHONLY|Rotation=270.000|XOffset=0mil|YOffset=0mil|HoleType=Round|Shape=RoundedRectangle|*
%AMROUNDEDRECTD34*
21,1,0.02362,0.05039,0,0,270.0*
21,1,0.01890,0.05512,0,0,270.0*
1,1,0.00472,-0.02520,-0.00945*
1,1,0.00472,-0.02520,0.00945*
1,1,0.00472,0.02520,0.00945*
1,1,0.00472,0.02520,-0.00945*
%
%ADD34ROUNDEDRECTD34*%
%ADD59C,0.02362*%
%ADD60C,0.01575*%
%ADD61C,0.01181*%
%ADD62C,0.03937*%
%ADD63C,0.01968*%
%ADD64O,0.07500X0.06500*%
%ADD65C,0.11811*%
%ADD66O,0.06693X0.07874*%
%ADD67C,0.03347*%
%ADD68C,0.04756*%
%ADD69O,0.10236X0.04331*%
G04:AMPARAMS|DCode=70|XSize=55mil|YSize=40mil|CornerRadius=0mil|HoleSize=0mil|Usage=FLASHONLY|Rotation=0.000|XOffset=0mil|YOffset=0mil|HoleType=Round|Shape=Octagon|*
%AMOCTAGOND70*
4,1,8,0.02750,-0.01000,0.02750,0.01000,0.01750,0.02000,-0.01750,0.02000,-0.02750,0.01000,-0.02750,-0.01000,-0.01750,-0.02000,0.01750,-0.02000,0.02750,-0.01000,0.0*
%
%ADD70OCTAGOND70*%

%ADD71O,0.05500X0.04000*%
%ADD72O,0.06500X0.07500*%
%ADD73O,0.07087X0.05906*%
%ADD74C,0.03150*%
%ADD75C,0.03937*%
G36*
X160923Y387804D02*
X161031Y386981D01*
X161246Y386464D01*
Y385055D01*
X161246Y384949D01*
X161246D01*
Y384556D01*
X161246D01*
Y378847D01*
X162294D01*
Y376822D01*
X154874D01*
X154729Y377199D01*
X154719Y377322D01*
X155205Y377808D01*
X155568Y378436D01*
X155756Y379137D01*
Y379863D01*
X155568Y380564D01*
X155205Y381192D01*
X154692Y381705D01*
X154064Y382068D01*
X153363Y382256D01*
X152637D01*
X151936Y382068D01*
X151308Y381705D01*
X150795Y381192D01*
X150432Y380564D01*
X150244Y379863D01*
Y379745D01*
X150177Y379700D01*
X149677Y379968D01*
Y380543D01*
X147890D01*
Y378953D01*
X146315D01*
Y380543D01*
X144528D01*
Y380038D01*
X144028Y379972D01*
X143869Y380564D01*
X143506Y381192D01*
X142993Y381705D01*
X142365Y382068D01*
X141664Y382256D01*
X140991D01*
X140897Y382306D01*
X140587Y382679D01*
X140656Y382937D01*
Y383663D01*
X140468Y384364D01*
X140105Y384992D01*
X140061Y385037D01*
X140294Y385510D01*
X140900Y385431D01*
X142057Y385583D01*
X143135Y386029D01*
X144060Y386740D01*
X144771Y387665D01*
X145217Y388743D01*
X145369Y389900D01*
Y390900D01*
X145217Y392057D01*
X144771Y393135D01*
X144060Y394060D01*
X143135Y394771D01*
X142057Y395217D01*
X141250Y395323D01*
X141283Y395823D01*
X160923D01*
Y387804D01*
D02*
G37*
G36*
X182823Y394684D02*
Y386000D01*
X182931Y385178D01*
X183167Y384610D01*
X182897Y384110D01*
X181476D01*
Y384556D01*
X175768D01*
Y378847D01*
X177068D01*
Y373973D01*
X176967Y373468D01*
Y371533D01*
X175031D01*
X174379Y371403D01*
X173825Y371033D01*
X173455Y370480D01*
X173326Y369827D01*
X173455Y369174D01*
X173677Y368843D01*
X173455Y368511D01*
X173326Y367858D01*
X173192Y367696D01*
X172599Y367672D01*
X172203Y368068D01*
X172356Y368637D01*
Y369363D01*
X172168Y370064D01*
X171805Y370692D01*
X171292Y371205D01*
X170664Y371568D01*
X169963Y371756D01*
X169237D01*
X168536Y371568D01*
X167908Y371205D01*
X167395Y370692D01*
X167032Y370064D01*
X166844Y369363D01*
Y368637D01*
X167032Y367936D01*
X167395Y367308D01*
X167908Y366795D01*
X168536Y366432D01*
X169237Y366244D01*
X169209Y365756D01*
X169037D01*
X168336Y365568D01*
X167708Y365205D01*
X167195Y364692D01*
X166832Y364064D01*
X166784Y363883D01*
X166301Y363754D01*
X165906Y364148D01*
Y375100D01*
Y378847D01*
X166954D01*
Y384556D01*
X166954Y384556D01*
Y384949D01*
X166954D01*
X166954Y385055D01*
Y386464D01*
X167168Y386981D01*
X167277Y387804D01*
Y395823D01*
X181684D01*
X182823Y394684D01*
D02*
G37*
G36*
X260823Y371684D02*
Y349507D01*
X257177D01*
X256851Y349725D01*
X256286Y349837D01*
Y350347D01*
X256780Y350445D01*
X257502Y350927D01*
X257984Y351649D01*
X257996Y351713D01*
X253370D01*
X248744D01*
X248757Y351649D01*
X249238Y350927D01*
X249960Y350445D01*
X250454Y350347D01*
Y349837D01*
X249889Y349725D01*
X249108Y349203D01*
X248586Y348422D01*
X248403Y347500D01*
X248586Y346578D01*
X249108Y345797D01*
X249889Y345275D01*
X249990Y345255D01*
Y344745D01*
X249889Y344725D01*
X249570Y344512D01*
X246838D01*
Y345364D01*
X241235D01*
X241129Y345364D01*
X240735D01*
X240629Y345364D01*
X235027D01*
X235007Y345856D01*
Y354063D01*
X235027Y354555D01*
X240629D01*
X240735Y354555D01*
X241129D01*
X241235Y354555D01*
X246838D01*
Y355448D01*
X249631D01*
X249889Y355275D01*
X250454Y355163D01*
Y354653D01*
X249960Y354555D01*
X249238Y354072D01*
X248757Y353351D01*
X248744Y353287D01*
X253370D01*
X257996D01*
X257984Y353351D01*
X257502Y354072D01*
X256780Y354555D01*
X256286Y354653D01*
Y355163D01*
X256851Y355275D01*
X257632Y355797D01*
X258154Y356578D01*
X258338Y357500D01*
X258154Y358422D01*
X257632Y359203D01*
X256851Y359725D01*
X255929Y359909D01*
X250811D01*
X249889Y359725D01*
X249495Y359462D01*
X246838D01*
Y360264D01*
X241235D01*
X241129Y360264D01*
X240735D01*
X240629Y360264D01*
X235027D01*
Y359416D01*
X234409D01*
X233641Y359264D01*
X232990Y358828D01*
X231581Y357419D01*
X231146Y356768D01*
X230993Y356000D01*
Y333831D01*
X225367Y328206D01*
X224905Y328397D01*
Y332854D01*
X224905D01*
Y333146D01*
X224905D01*
Y337993D01*
X226000D01*
X226768Y338146D01*
X227419Y338581D01*
X228419Y339581D01*
X228854Y340232D01*
X229007Y341000D01*
Y341110D01*
X229205Y341308D01*
X229568Y341936D01*
X229756Y342637D01*
Y343363D01*
X229568Y344064D01*
X229205Y344692D01*
X228692Y345205D01*
X228064Y345568D01*
X227363Y345756D01*
X226637D01*
X225936Y345568D01*
X225457Y345291D01*
X224957Y345507D01*
Y346854D01*
X224314D01*
Y347745D01*
X224480D01*
X225172Y347882D01*
X225758Y348274D01*
X226149Y348860D01*
X226287Y349551D01*
Y353882D01*
X226149Y354573D01*
X225758Y355159D01*
X225172Y355551D01*
X224480Y355688D01*
X221992D01*
X221551Y356129D01*
X221743Y356591D01*
X221921D01*
Y360378D01*
Y364165D01*
X220937D01*
X220316Y364042D01*
X219790Y363690D01*
X219772Y363662D01*
X219170D01*
X219065Y363821D01*
X218479Y364212D01*
X217787Y364350D01*
X217621D01*
Y365146D01*
X218854D01*
Y370854D01*
X218803D01*
Y375854D01*
X218357D01*
Y378823D01*
X253684D01*
X260823Y371684D01*
D02*
G37*
G36*
X105900Y406194D02*
X356492D01*
X356500Y406193D01*
X356508Y406194D01*
X356797D01*
X357806Y406062D01*
X358883Y405615D01*
X359807Y404906D01*
X360517Y403981D01*
X360963Y402904D01*
X361095Y401902D01*
X361094Y401898D01*
Y280258D01*
X361094Y279800D01*
X361101Y279760D01*
X361066Y279279D01*
X360963Y278494D01*
X360517Y277417D01*
X359807Y276493D01*
X358883Y275783D01*
X357806Y275337D01*
X356803Y275205D01*
X356800Y275206D01*
X106658D01*
X106200Y275206D01*
X106160Y275199D01*
X105679Y275234D01*
X104894Y275337D01*
X103817Y275783D01*
X102893Y276493D01*
X102183Y277417D01*
X101737Y278494D01*
X101605Y279497D01*
X101606Y279500D01*
Y313038D01*
X102068Y313229D01*
X102148Y313148D01*
X102148Y313148D01*
X102539Y312887D01*
X103000Y312796D01*
X103000Y312796D01*
X113000Y312796D01*
X113000Y312796D01*
X113461Y312887D01*
X113851Y313148D01*
X113983Y313280D01*
X114445Y313088D01*
Y311554D01*
X113503D01*
X113397Y311554D01*
X113003D01*
X112897Y311554D01*
X107294D01*
Y305846D01*
X108518D01*
Y305282D01*
X107765Y304971D01*
X106840Y304260D01*
X106129Y303335D01*
X105683Y302257D01*
X105531Y301100D01*
X105683Y299943D01*
X106129Y298865D01*
X106840Y297940D01*
X107765Y297229D01*
X108843Y296783D01*
X110000Y296631D01*
X111000D01*
X112157Y296783D01*
X113235Y297229D01*
X114160Y297940D01*
X114871Y298865D01*
X115317Y299943D01*
X115469Y301100D01*
X115317Y302257D01*
X114871Y303335D01*
X114160Y304260D01*
X113235Y304971D01*
X112329Y305346D01*
X112428Y305846D01*
X112897D01*
X113003Y305846D01*
X113397D01*
X113503Y305846D01*
X119106D01*
Y311554D01*
X118058D01*
Y343303D01*
X120448Y345694D01*
X148600D01*
X149291Y345831D01*
X149877Y346223D01*
X158499Y354844D01*
X158763D01*
X159464Y355032D01*
X160092Y355395D01*
X160605Y355908D01*
X160968Y356536D01*
X161156Y357237D01*
Y357963D01*
X161112Y358126D01*
X161560Y358385D01*
X163207Y356738D01*
X163793Y356347D01*
X164217Y356263D01*
X164382Y355720D01*
X162723Y354061D01*
X162331Y353475D01*
X162194Y352784D01*
Y336967D01*
X161980Y336837D01*
X161694Y336755D01*
X161297Y337020D01*
X160744Y337130D01*
X155705D01*
X155152Y337020D01*
X154683Y336707D01*
X154370Y336238D01*
X154260Y335685D01*
Y333795D01*
X154370Y333242D01*
X154618Y332870D01*
X154370Y332498D01*
X154260Y331945D01*
Y330055D01*
X154370Y329502D01*
X154618Y329130D01*
X154370Y328758D01*
X154260Y328205D01*
Y326315D01*
X154370Y325762D01*
X154683Y325293D01*
X155152Y324980D01*
X155705Y324870D01*
X160744D01*
X161297Y324980D01*
X161766Y325293D01*
X161873Y325453D01*
X166308D01*
X166999Y325591D01*
X167585Y325983D01*
X168277Y326674D01*
X168669Y327260D01*
X168806Y327952D01*
Y334786D01*
X169146Y335146D01*
X174854D01*
Y335146D01*
X175169Y335276D01*
X176194Y334252D01*
Y330091D01*
X175795Y329692D01*
X175432Y329064D01*
X175244Y328363D01*
Y327637D01*
X175432Y326936D01*
X175795Y326308D01*
X176308Y325795D01*
X176465Y325704D01*
X176331Y325204D01*
X168000D01*
X168000Y325204D01*
X167539Y325113D01*
X167148Y324851D01*
X167148Y324851D01*
X165148Y322851D01*
X165029Y322673D01*
X163736D01*
Y320000D01*
Y317327D01*
X164796D01*
Y316673D01*
X163736D01*
Y314000D01*
Y311327D01*
X165622D01*
Y311501D01*
X166122Y311769D01*
X166197Y311719D01*
Y311146D01*
X167151D01*
X170796Y307501D01*
Y300000D01*
X170796Y300000D01*
X170887Y299539D01*
X171149Y299149D01*
X172147Y298150D01*
X171958Y297650D01*
X171012D01*
Y297184D01*
X169204D01*
Y307000D01*
X169204Y307000D01*
X169113Y307461D01*
X168851Y307852D01*
X168851Y307852D01*
X166851Y309852D01*
X166461Y310113D01*
X166000Y310204D01*
X166000Y310204D01*
X134000D01*
X134000Y310204D01*
X133539Y310113D01*
X133149Y309852D01*
X133149Y309852D01*
X131149Y307852D01*
X130887Y307461D01*
X130796Y307000D01*
X130796Y307000D01*
Y304101D01*
X130622Y303673D01*
X130296Y303673D01*
X128736D01*
Y301000D01*
Y298327D01*
X130296D01*
X130622Y298327D01*
X130796Y297899D01*
Y293101D01*
X130622Y292673D01*
X130296Y292673D01*
X128736D01*
Y290000D01*
Y287327D01*
X130296D01*
X130622Y287327D01*
X130796Y286899D01*
Y282000D01*
X130796Y282000D01*
X130887Y281539D01*
X131149Y281149D01*
X131149Y281149D01*
X133149Y279149D01*
X133539Y278887D01*
X134000Y278796D01*
X134000Y278796D01*
X166000D01*
X166000Y278796D01*
X166461Y278887D01*
X166851Y279149D01*
X166851Y279149D01*
X168851Y281149D01*
X169113Y281539D01*
X169204Y282000D01*
X169204Y282000D01*
Y291624D01*
X171012D01*
Y291350D01*
X182823D01*
Y291624D01*
X194205D01*
X194304Y291387D01*
X194373Y291124D01*
X194016Y290507D01*
X193822Y289781D01*
Y289030D01*
X194016Y288304D01*
X194392Y287653D01*
X194923Y287122D01*
X195574Y286746D01*
X196300Y286551D01*
X197052D01*
X197778Y286746D01*
X198429Y287122D01*
X198869Y287561D01*
X199177Y287615D01*
X199485Y287561D01*
X199925Y287122D01*
X200575Y286746D01*
X201301Y286551D01*
X202053D01*
X202779Y286746D01*
X203430Y287122D01*
X203961Y287653D01*
X204337Y288304D01*
X204532Y289030D01*
Y289781D01*
X204337Y290507D01*
X203961Y291158D01*
X203523Y291596D01*
X203468Y291905D01*
X203523Y292213D01*
X203961Y292652D01*
X204337Y293302D01*
X204532Y294028D01*
Y294780D01*
X204337Y295506D01*
X203961Y296157D01*
X203521Y296597D01*
X203467Y296905D01*
X203521Y297213D01*
X203961Y297653D01*
X204337Y298304D01*
X204532Y299030D01*
Y299781D01*
X204337Y300507D01*
X203961Y301158D01*
X203430Y301690D01*
X202779Y302065D01*
X202053Y302260D01*
X201301D01*
X200575Y302065D01*
X199925Y301690D01*
X199393Y301158D01*
X199322Y301035D01*
X198987Y301035D01*
X198775Y301087D01*
X198318Y301545D01*
X197708Y301897D01*
X197464Y301962D01*
Y299406D01*
X196676D01*
Y298618D01*
X194120D01*
X194185Y298374D01*
X194537Y297764D01*
X194617Y297684D01*
X194410Y297184D01*
X183020D01*
X182971Y297681D01*
X183283Y297746D01*
X183328Y297755D01*
X183719Y298016D01*
X184852Y299149D01*
X185113Y299539D01*
X185204Y300000D01*
X185204Y300000D01*
Y322000D01*
X185204Y322000D01*
X185113Y322461D01*
X184852Y322851D01*
X184852Y322851D01*
X182852Y324851D01*
X182461Y325113D01*
X182000Y325204D01*
X182000Y325204D01*
X179669D01*
X179535Y325704D01*
X179692Y325795D01*
X180205Y326308D01*
X180568Y326936D01*
X180756Y327637D01*
Y328363D01*
X180568Y329064D01*
X180205Y329692D01*
X179806Y330091D01*
Y335000D01*
X179669Y335691D01*
X179447Y336024D01*
X179635Y336585D01*
X179646Y336595D01*
X179847Y336649D01*
X180475Y337012D01*
X180988Y337525D01*
X181351Y338153D01*
X181539Y338854D01*
Y339580D01*
X181351Y340281D01*
X180988Y340909D01*
X180475Y341422D01*
X180316Y341514D01*
Y342559D01*
X180642Y342826D01*
X181295Y342955D01*
X181626Y343177D01*
X181957Y342955D01*
X182610Y342826D01*
X183263Y342955D01*
X183595Y343177D01*
X183926Y342955D01*
X184579Y342826D01*
X185232Y342955D01*
X185563Y343177D01*
X185894Y342955D01*
X186547Y342826D01*
X187200Y342955D01*
X187531Y343177D01*
X187863Y342955D01*
X187959Y342936D01*
X188123Y342394D01*
X186565Y340835D01*
X186217Y340315D01*
X186189Y340178D01*
X186031Y339941D01*
X185894Y339250D01*
Y323100D01*
X186031Y322409D01*
X186423Y321823D01*
X201323Y306923D01*
X201909Y306531D01*
X202600Y306394D01*
X212352D01*
X213074Y305671D01*
X212795Y305392D01*
X212432Y304764D01*
X212244Y304063D01*
Y303337D01*
X212432Y302636D01*
X212795Y302008D01*
X213308Y301495D01*
X213936Y301132D01*
X214637Y300944D01*
X215363D01*
X216064Y301132D01*
X216235Y301231D01*
X216735Y300942D01*
Y290348D01*
X216258Y290150D01*
X215313Y289424D01*
X214587Y288479D01*
X214131Y287377D01*
X213975Y286195D01*
Y285014D01*
X214131Y283832D01*
X214587Y282731D01*
X215313Y281785D01*
X216258Y281059D01*
X217360Y280603D01*
X218542Y280448D01*
X219724Y280603D01*
X220825Y281059D01*
X221771Y281785D01*
X222497Y282731D01*
X222953Y283832D01*
X223108Y285014D01*
Y286195D01*
X222953Y287377D01*
X222497Y288479D01*
X221771Y289424D01*
X220825Y290150D01*
X220348Y290348D01*
Y306452D01*
X220825Y306650D01*
X221771Y307376D01*
X222497Y308321D01*
X222953Y309423D01*
X223108Y310605D01*
Y311786D01*
X222953Y312968D01*
X222497Y314069D01*
X221771Y315015D01*
X220825Y315741D01*
X219724Y316197D01*
X218542Y316353D01*
X217360Y316197D01*
X216258Y315741D01*
X215313Y315015D01*
X214587Y314069D01*
X214145Y313002D01*
X203491D01*
X198961Y317531D01*
X199153Y317993D01*
X226000D01*
X226768Y318146D01*
X227419Y318581D01*
X239300Y330462D01*
X239735Y331113D01*
X239888Y331881D01*
Y339655D01*
X240629D01*
X240735Y339655D01*
X241129D01*
X241235Y339655D01*
X246838D01*
Y340498D01*
X249556D01*
X249889Y340275D01*
X250811Y340091D01*
X255929D01*
X256851Y340275D01*
X257632Y340797D01*
X258154Y341578D01*
X258338Y342500D01*
X258154Y343422D01*
X257632Y344203D01*
X256851Y344725D01*
X256750Y344745D01*
Y345255D01*
X256851Y345275D01*
X257177Y345493D01*
X260823D01*
Y335288D01*
X258809D01*
Y336136D01*
X253100D01*
Y335288D01*
X249281D01*
X248513Y335136D01*
X247862Y334700D01*
X234839Y321677D01*
X234404Y321026D01*
X234251Y320258D01*
Y315855D01*
X233975Y315741D01*
X233029Y315015D01*
X232304Y314069D01*
X231847Y312968D01*
X231692Y311786D01*
Y310605D01*
X231847Y309423D01*
X232304Y308321D01*
X233029Y307376D01*
X233975Y306650D01*
X234251Y306536D01*
Y290265D01*
X233975Y290150D01*
X233029Y289424D01*
X232304Y288479D01*
X231847Y287377D01*
X231692Y286195D01*
Y285014D01*
X231847Y283832D01*
X232304Y282731D01*
X233029Y281785D01*
X233975Y281059D01*
X235076Y280603D01*
X236258Y280448D01*
X237440Y280603D01*
X238542Y281059D01*
X239487Y281785D01*
X240213Y282731D01*
X240669Y283832D01*
X240825Y285014D01*
Y286195D01*
X240669Y287377D01*
X240213Y288479D01*
X239487Y289424D01*
X238542Y290150D01*
X238265Y290265D01*
Y297980D01*
X238765Y298269D01*
X239024Y298120D01*
X239725Y297932D01*
X240451D01*
X241151Y298120D01*
X241346Y298232D01*
X241846Y298097D01*
Y298097D01*
X241846Y298097D01*
X247554D01*
Y303805D01*
X241846D01*
Y303432D01*
X241346Y303144D01*
X241151Y303256D01*
X240451Y303444D01*
X239725D01*
X239024Y303256D01*
X238765Y303106D01*
X238265Y303395D01*
Y306536D01*
X238542Y306650D01*
X239487Y307376D01*
X240213Y308321D01*
X240669Y309423D01*
X240825Y310605D01*
Y311786D01*
X240669Y312968D01*
X240213Y314069D01*
X239487Y315015D01*
X238864Y315493D01*
X239034Y315993D01*
X276000D01*
X276768Y316146D01*
X277419Y316581D01*
X281419Y320581D01*
X281854Y321232D01*
X282007Y322000D01*
Y325169D01*
X284635Y327797D01*
X285553D01*
X285643Y327687D01*
Y324833D01*
X285746Y324314D01*
X286040Y323875D01*
X286480Y323581D01*
X286998Y323478D01*
X287884D01*
X288402Y323581D01*
X288842Y323875D01*
X288906Y323887D01*
X289109Y323752D01*
X289213Y323731D01*
Y324701D01*
X289239Y324833D01*
Y326260D01*
X290761D01*
Y324833D01*
X290787Y324701D01*
Y323731D01*
X290891Y323752D01*
X291094Y323887D01*
X291158Y323875D01*
X291598Y323581D01*
X292116Y323478D01*
X293002D01*
X293520Y323581D01*
X293960Y323875D01*
X294254Y324314D01*
X294357Y324833D01*
Y327687D01*
X294254Y328205D01*
X293960Y328645D01*
X293520Y328939D01*
X293002Y329042D01*
X292116D01*
X291782Y328975D01*
X291698Y329052D01*
X291501Y329429D01*
X291854Y329958D01*
X291958Y330480D01*
X292116Y330958D01*
X293002D01*
X293520Y331061D01*
X293960Y331355D01*
X294254Y331795D01*
X294357Y332313D01*
Y332887D01*
X294413Y332972D01*
X294566Y333740D01*
Y342002D01*
X295697D01*
X295803Y342002D01*
X296197D01*
X296303Y342002D01*
X301905D01*
Y342960D01*
X304830D01*
Y342248D01*
X313092D01*
Y347910D01*
X304830D01*
Y346974D01*
X301905D01*
Y347710D01*
X296303D01*
X296197Y347710D01*
X295803D01*
X295697Y347710D01*
X292933D01*
X291724Y348919D01*
X291073Y349354D01*
X290305Y349507D01*
X288150D01*
X287919Y349738D01*
X287949Y350264D01*
X288276Y350493D01*
X290449D01*
X291217Y350646D01*
X291868Y351081D01*
X292933Y352146D01*
X295697D01*
X295803Y352146D01*
X296197D01*
X296303Y352146D01*
X301905D01*
Y352954D01*
X304830D01*
Y352090D01*
X313092D01*
Y357752D01*
X304830D01*
Y356968D01*
X301905D01*
Y357854D01*
X296303D01*
X296197Y357854D01*
X295803D01*
X295697Y357854D01*
X292064D01*
X291680Y358354D01*
X291756Y358637D01*
Y359363D01*
X291568Y360064D01*
X291205Y360692D01*
X290692Y361205D01*
X290064Y361568D01*
X289363Y361756D01*
X288637D01*
X288354Y361680D01*
X287854Y362064D01*
Y366803D01*
X282146D01*
Y364806D01*
X276436D01*
Y366539D01*
X276835Y366938D01*
X277198Y367566D01*
X277386Y368267D01*
Y368993D01*
X277198Y369694D01*
X276835Y370322D01*
X276322Y370835D01*
X275694Y371198D01*
X274993Y371386D01*
X274267D01*
X273566Y371198D01*
X272938Y370835D01*
X272425Y370322D01*
X272062Y369694D01*
X271874Y368993D01*
Y368267D01*
X272062Y367566D01*
X272425Y366938D01*
X272824Y366539D01*
Y363000D01*
Y359909D01*
X272071D01*
X271149Y359725D01*
X270368Y359203D01*
X269846Y358422D01*
X269662Y357500D01*
X269846Y356578D01*
X270368Y355797D01*
X271149Y355275D01*
X271250Y355255D01*
Y354745D01*
X271149Y354725D01*
X270368Y354203D01*
X269846Y353422D01*
X269662Y352500D01*
X269846Y351578D01*
X270368Y350797D01*
X271149Y350275D01*
X271250Y350255D01*
Y349745D01*
X271149Y349725D01*
X270368Y349203D01*
X269846Y348422D01*
X269662Y347500D01*
X269846Y346578D01*
X270368Y345797D01*
X271149Y345275D01*
X271250Y345255D01*
Y344745D01*
X271149Y344725D01*
X270368Y344203D01*
X269846Y343422D01*
X269662Y342500D01*
X269846Y341578D01*
X270368Y340797D01*
X271149Y340275D01*
X272071Y340091D01*
X272716D01*
Y336136D01*
X271869D01*
Y330427D01*
X277577D01*
Y336136D01*
X276730D01*
Y340091D01*
X277189D01*
X278111Y340275D01*
X278892Y340797D01*
X279414Y341578D01*
X279597Y342500D01*
X279414Y343422D01*
X278892Y344203D01*
X278111Y344725D01*
X278010Y344745D01*
Y345255D01*
X278111Y345275D01*
X278437Y345493D01*
X282146D01*
Y344094D01*
X287854D01*
Y345493D01*
X289473D01*
X290094Y344872D01*
Y342357D01*
X289814Y342217D01*
X289595Y342185D01*
X289133Y342646D01*
X288505Y343009D01*
X287804Y343197D01*
X287078D01*
X286377Y343009D01*
X285749Y342646D01*
X285236Y342133D01*
X284873Y341505D01*
X284685Y340804D01*
Y340078D01*
X284873Y339377D01*
X285236Y338749D01*
X285434Y338551D01*
Y333740D01*
X285587Y332972D01*
X285643Y332887D01*
Y332313D01*
X285666Y332197D01*
X285349Y331811D01*
X283804D01*
X283036Y331658D01*
X282385Y331223D01*
X278581Y327419D01*
X278146Y326768D01*
X277993Y326000D01*
Y322831D01*
X275169Y320007D01*
X239499D01*
X239307Y320469D01*
X250113Y331274D01*
X253100D01*
Y330427D01*
X258809D01*
Y331274D01*
X261146D01*
Y330427D01*
X262346D01*
X262415Y330352D01*
X262195Y329852D01*
X261327D01*
Y327966D01*
X264000D01*
X266673D01*
Y329852D01*
X265805D01*
X265585Y330352D01*
X265654Y330427D01*
X266854D01*
Y331942D01*
X267069Y332459D01*
X267177Y333281D01*
Y348000D01*
Y373000D01*
X267069Y373822D01*
X266751Y374588D01*
X266246Y375246D01*
X257246Y384246D01*
X256588Y384751D01*
X255822Y385068D01*
X255000Y385177D01*
X198766D01*
X198717Y385677D01*
X199767Y385886D01*
X201057Y386420D01*
X202218Y387195D01*
X203204Y388182D01*
X203980Y389343D01*
X204514Y390633D01*
X204787Y392002D01*
Y393398D01*
X204514Y394767D01*
X203980Y396057D01*
X203204Y397217D01*
X202218Y398204D01*
X201057Y398980D01*
X199767Y399514D01*
X198398Y399787D01*
X197002D01*
X195633Y399514D01*
X194343Y398980D01*
X193183Y398204D01*
X192195Y397217D01*
X191420Y396057D01*
X190886Y394767D01*
X190613Y393398D01*
Y392002D01*
X190886Y390633D01*
X191420Y389343D01*
X192195Y388182D01*
X193183Y387195D01*
X194343Y386420D01*
X195633Y385886D01*
X196683Y385677D01*
X196634Y385177D01*
X191316D01*
X189177Y387316D01*
Y396000D01*
X189068Y396822D01*
X188751Y397588D01*
X188246Y398246D01*
X185246Y401246D01*
X184588Y401751D01*
X183822Y402069D01*
X183000Y402177D01*
X122613D01*
X121791Y402069D01*
X121025Y401751D01*
X120367Y401246D01*
X118060Y398940D01*
X117555Y398282D01*
X117238Y397516D01*
X117130Y396694D01*
Y392467D01*
X116840Y392177D01*
X110491D01*
X110250Y392209D01*
X108750D01*
X107920Y392099D01*
X107146Y391779D01*
X106481Y391269D01*
X105971Y390604D01*
X105651Y389830D01*
X105542Y389000D01*
X105651Y388170D01*
X105971Y387396D01*
X106481Y386731D01*
X106610Y386632D01*
Y386140D01*
X106130Y385513D01*
X105829Y384787D01*
X113171D01*
X112949Y385323D01*
X113214Y385823D01*
X118156D01*
X118978Y385931D01*
X119744Y386249D01*
X120402Y386754D01*
X121623Y387974D01*
X122575D01*
X123046Y387903D01*
X123046Y387474D01*
Y382254D01*
X122961Y382114D01*
X122687Y381854D01*
X117095D01*
Y381208D01*
X112823D01*
X112390Y381635D01*
Y381860D01*
X112871Y382487D01*
X113171Y383213D01*
X105829D01*
X106130Y382487D01*
X106610Y381860D01*
Y381368D01*
X106481Y381269D01*
X105971Y380604D01*
X105651Y379830D01*
X105542Y379000D01*
X105651Y378170D01*
X105971Y377396D01*
X106481Y376731D01*
X106495Y376517D01*
X105569Y375590D01*
Y372410D01*
X107159Y370819D01*
X111841D01*
X112814Y371792D01*
X117095D01*
Y369646D01*
X122697D01*
X122803Y369646D01*
X123197D01*
X123303Y369646D01*
X128635D01*
Y363740D01*
X128643Y363697D01*
Y362313D01*
X128746Y361795D01*
X129040Y361355D01*
X129480Y361061D01*
X129998Y360958D01*
X130884D01*
X131402Y361061D01*
X131720Y361274D01*
X132039Y361061D01*
X132557Y360958D01*
X133443D01*
X133961Y361061D01*
X134280Y361274D01*
X134598Y361061D01*
X135116Y360958D01*
X136002D01*
X136520Y361061D01*
X136960Y361355D01*
X137029Y361459D01*
X137671Y361525D01*
X137729Y361467D01*
X138357Y361104D01*
X139058Y360916D01*
X139784D01*
X140485Y361104D01*
X141113Y361467D01*
X141626Y361980D01*
X141989Y362608D01*
X142177Y363309D01*
Y364035D01*
X141989Y364736D01*
X141752Y365146D01*
X142018Y365646D01*
X143803D01*
Y371354D01*
X140649D01*
X139401Y372602D01*
X139241Y372709D01*
X139392Y373209D01*
X139866D01*
X139945Y373194D01*
X140636Y373331D01*
X141222Y373723D01*
X141614Y374309D01*
X141751Y375000D01*
X141614Y375691D01*
X141244Y376244D01*
X141294Y376469D01*
X141431Y376744D01*
X141664D01*
X142365Y376932D01*
X142993Y377295D01*
X143506Y377808D01*
X143846Y378397D01*
X143892Y378409D01*
X144346Y378152D01*
Y373244D01*
X144528D01*
Y373244D01*
X146928D01*
X147102Y373209D01*
Y372260D01*
X144528D01*
X144527Y371611D01*
X144378Y371173D01*
X144378Y371019D01*
Y369287D01*
X149724D01*
Y370976D01*
X149724Y371173D01*
X149677Y371654D01*
Y373209D01*
X162294D01*
Y363468D01*
X162133Y363346D01*
X161816Y363239D01*
X155756Y369299D01*
Y369863D01*
X155568Y370564D01*
X155205Y371192D01*
X154692Y371705D01*
X154064Y372068D01*
X153363Y372256D01*
X152637D01*
X151936Y372068D01*
X151308Y371705D01*
X150795Y371192D01*
X150432Y370564D01*
X150244Y369863D01*
Y369137D01*
X150432Y368436D01*
X150795Y367808D01*
X151308Y367295D01*
X151936Y366932D01*
X152637Y366744D01*
X153201D01*
X159185Y360760D01*
X158926Y360312D01*
X158763Y360356D01*
X158037D01*
X157336Y360168D01*
X156708Y359805D01*
X156195Y359292D01*
X155832Y358664D01*
X155644Y357963D01*
Y357237D01*
X155673Y357128D01*
X147852Y349306D01*
X119700D01*
X119009Y349169D01*
X118423Y348777D01*
X115937Y346292D01*
X115407Y346468D01*
X115377Y346674D01*
X119852Y351149D01*
X120113Y351539D01*
X120204Y352000D01*
X120204Y352000D01*
Y360027D01*
X121364D01*
Y362700D01*
Y365373D01*
X120204D01*
Y366000D01*
X120113Y366461D01*
X119852Y366851D01*
X119852Y366851D01*
X118851Y367851D01*
X118461Y368113D01*
X118000Y368204D01*
X118000Y368204D01*
X103000Y368204D01*
X102539Y368113D01*
X102148Y367851D01*
X102148Y367851D01*
X102068Y367771D01*
X101606Y367962D01*
Y401142D01*
X101606Y401600D01*
X101599Y401640D01*
X101634Y402121D01*
X101737Y402906D01*
X102183Y403983D01*
X102893Y404907D01*
X103817Y405617D01*
X104894Y406063D01*
X105896Y406195D01*
X105900Y406194D01*
D02*
G37*
G36*
X212657Y354055D02*
X212622Y353882D01*
Y352504D01*
X216016D01*
Y351717D01*
X216803D01*
Y347930D01*
X217787D01*
X218408Y348053D01*
X218934Y348405D01*
X218953Y348432D01*
X219554D01*
X219660Y348274D01*
X220246Y347882D01*
X220937Y347745D01*
X221103D01*
Y346854D01*
X219248D01*
Y342007D01*
X218673D01*
Y343213D01*
X216000D01*
X213327D01*
Y341327D01*
X214835D01*
X215026Y340865D01*
X214581Y340419D01*
X214146Y339768D01*
X213993Y339000D01*
Y338854D01*
X213094D01*
Y337938D01*
X208155D01*
Y338645D01*
X203242D01*
Y338717D01*
X201932D01*
Y344027D01*
X202033Y344531D01*
Y346467D01*
X203969D01*
X204621Y346597D01*
X205175Y346967D01*
X205545Y347520D01*
X205675Y348173D01*
X205545Y348826D01*
X205323Y349158D01*
X205545Y349489D01*
X205675Y350142D01*
X205545Y350795D01*
X205323Y351126D01*
X205545Y351457D01*
X205675Y352110D01*
X205545Y352763D01*
X205323Y353095D01*
X205545Y353426D01*
X205675Y354079D01*
X205972Y354442D01*
X212340D01*
X212657Y354055D01*
D02*
G37*
G36*
X213094Y333146D02*
X213209D01*
X213276Y332673D01*
X213276D01*
Y330787D01*
X215949D01*
Y329213D01*
X213276D01*
Y328156D01*
X212170D01*
X211771Y328555D01*
X211142Y328918D01*
X210441Y329105D01*
X209716D01*
X209015Y328918D01*
X208474Y328606D01*
X207974Y328777D01*
Y328901D01*
X205301D01*
Y329689D01*
X204513D01*
Y332362D01*
X203061D01*
Y332433D01*
X201175D01*
Y329760D01*
X199600D01*
Y332433D01*
X198397D01*
Y333008D01*
X202447D01*
Y332937D01*
X208155D01*
Y333924D01*
X213094D01*
Y333146D01*
D02*
G37*
G36*
X119000Y366000D02*
Y352000D01*
X114000Y347000D01*
Y315000D01*
X113000Y314000D01*
X103000Y314000D01*
X102000Y315000D01*
X102000Y366000D01*
X103000Y367000D01*
X118000Y367000D01*
X119000Y366000D01*
D02*
G37*
G36*
X184000Y322000D02*
Y300000D01*
X182867Y298867D01*
X173133D01*
X172000Y300000D01*
Y308000D01*
X166000Y314000D01*
Y322000D01*
X168000Y324000D01*
X182000D01*
X184000Y322000D01*
D02*
G37*
G36*
X168000Y307000D02*
Y282000D01*
X166000Y280000D01*
X134000D01*
X132000Y282000D01*
Y307000D01*
X134000Y309000D01*
X166000D01*
X168000Y307000D01*
D02*
G37*
%LPC*%
G36*
X151687Y395083D02*
Y391187D01*
X155149D01*
X155041Y392009D01*
X154612Y393043D01*
X153931Y393931D01*
X153043Y394612D01*
X152009Y395041D01*
X151687Y395083D01*
D02*
G37*
G36*
X150113D02*
X149791Y395041D01*
X148757Y394612D01*
X147869Y393931D01*
X147188Y393043D01*
X146759Y392009D01*
X146651Y391187D01*
X150113D01*
Y395083D01*
D02*
G37*
G36*
X155149Y389613D02*
X151687D01*
Y385717D01*
X152009Y385759D01*
X153043Y386188D01*
X153931Y386869D01*
X154612Y387757D01*
X155041Y388790D01*
X155149Y389613D01*
D02*
G37*
G36*
X150113D02*
X146651D01*
X146759Y388790D01*
X147188Y387757D01*
X147869Y386869D01*
X148757Y386188D01*
X149791Y385759D01*
X150113Y385717D01*
Y389613D01*
D02*
G37*
G36*
X181295Y390477D02*
X179409D01*
Y388591D01*
X181295D01*
Y390477D01*
D02*
G37*
G36*
X177834D02*
X175949D01*
Y388591D01*
X177834D01*
Y390477D01*
D02*
G37*
G36*
X181295Y387016D02*
X179409D01*
Y385130D01*
X181295D01*
Y387016D01*
D02*
G37*
G36*
X177834D02*
X175949D01*
Y385130D01*
X177834D01*
Y387016D01*
D02*
G37*
G36*
X224724Y375673D02*
X222839D01*
Y373787D01*
X224724D01*
Y375673D01*
D02*
G37*
G36*
X221264D02*
X219378D01*
Y373787D01*
X221264D01*
Y375673D01*
D02*
G37*
G36*
X224724Y372213D02*
X219378D01*
Y370327D01*
X219429D01*
Y368787D01*
X224776D01*
Y370673D01*
X224724D01*
Y372213D01*
D02*
G37*
G36*
X224776Y367213D02*
X222890D01*
Y365327D01*
X224776D01*
Y367213D01*
D02*
G37*
G36*
X221315D02*
X219429D01*
Y365327D01*
X221315D01*
Y367213D01*
D02*
G37*
G36*
X224480Y364165D02*
X223496D01*
Y361165D01*
X226102D01*
Y362543D01*
X225979Y363164D01*
X225627Y363690D01*
X225101Y364042D01*
X224480Y364165D01*
D02*
G37*
G36*
X226102Y359591D02*
X223496D01*
Y356591D01*
X224480D01*
X225101Y356714D01*
X225627Y357066D01*
X225979Y357592D01*
X226102Y358213D01*
Y359591D01*
D02*
G37*
G36*
X287673Y372724D02*
X285787D01*
Y370839D01*
X287673D01*
Y372724D01*
D02*
G37*
G36*
X284213D02*
X282327D01*
Y370839D01*
X284213D01*
Y372724D01*
D02*
G37*
G36*
X287673Y369264D02*
X285787D01*
Y367378D01*
X287673D01*
Y369264D01*
D02*
G37*
G36*
X284213D02*
X282327D01*
Y367378D01*
X284213D01*
Y369264D01*
D02*
G37*
G36*
X149724Y367713D02*
X147839D01*
Y365827D01*
X149724D01*
Y367713D01*
D02*
G37*
G36*
X146264D02*
X144378D01*
Y365827D01*
X146264D01*
Y367713D01*
D02*
G37*
G36*
X124824Y365373D02*
X122939D01*
Y363487D01*
X124824D01*
Y365373D01*
D02*
G37*
G36*
Y361913D02*
X122939D01*
Y360027D01*
X124824D01*
Y361913D01*
D02*
G37*
G36*
X136002Y359042D02*
X135116D01*
X134598Y358939D01*
X134158Y358645D01*
X134094Y358632D01*
X133891Y358768D01*
X133787Y358789D01*
Y357819D01*
X133761Y357687D01*
Y356260D01*
Y354833D01*
X133787Y354701D01*
Y353731D01*
X133891Y353752D01*
X134094Y353888D01*
X134158Y353875D01*
X134598Y353581D01*
X135116Y353478D01*
X136002D01*
X136520Y353581D01*
X136960Y353875D01*
X137254Y354314D01*
X137357Y354833D01*
Y357687D01*
X137254Y358205D01*
X136960Y358645D01*
X136520Y358939D01*
X136002Y359042D01*
D02*
G37*
G36*
X327197Y367854D02*
X326803D01*
X326697Y367854D01*
X321094D01*
Y367007D01*
X319922D01*
X319154Y366854D01*
X318503Y366419D01*
X317581Y365497D01*
X317146Y364846D01*
X316993Y364077D01*
Y338172D01*
X316265Y337871D01*
X315340Y337160D01*
X314629Y336235D01*
X314183Y335157D01*
X314031Y334000D01*
X314183Y332843D01*
X314629Y331765D01*
X315340Y330840D01*
X316265Y330129D01*
X317343Y329683D01*
X318500Y329531D01*
X319500D01*
X320657Y329683D01*
X321735Y330129D01*
X322660Y330840D01*
X323371Y331765D01*
X323817Y332843D01*
X323969Y334000D01*
X323817Y335157D01*
X323371Y336235D01*
X322660Y337160D01*
X321735Y337871D01*
X321007Y338172D01*
Y361682D01*
X321094Y362146D01*
X326697D01*
X326803Y362146D01*
X327197D01*
X327303Y362146D01*
X330067D01*
X331821Y360392D01*
X332472Y359957D01*
X333240Y359804D01*
X339569D01*
X339601Y359726D01*
X340264Y358863D01*
X341127Y358200D01*
X341311Y358124D01*
Y357624D01*
X341127Y357548D01*
X340264Y356885D01*
X339895Y356405D01*
X333171D01*
Y357752D01*
X324908D01*
Y352090D01*
X333171D01*
Y352391D01*
X339378D01*
X339601Y351852D01*
X340264Y350989D01*
X341127Y350326D01*
X341311Y350250D01*
Y349750D01*
X341127Y349674D01*
X340264Y349011D01*
X339601Y348148D01*
X339352Y347546D01*
X333171D01*
Y347910D01*
X324908D01*
Y342248D01*
X333171D01*
Y343532D01*
X339943D01*
X340264Y343115D01*
X341127Y342452D01*
X341311Y342376D01*
Y341876D01*
X341127Y341800D01*
X340264Y341137D01*
X339601Y340274D01*
X339184Y339268D01*
X339042Y338189D01*
X339184Y337110D01*
X339601Y336104D01*
X340264Y335241D01*
X341127Y334578D01*
X341795Y334301D01*
Y332634D01*
X335169Y326007D01*
X323465D01*
X323371Y326235D01*
X322660Y327160D01*
X321735Y327871D01*
X320657Y328317D01*
X319500Y328469D01*
X318500D01*
X317343Y328317D01*
X316265Y327871D01*
X315340Y327160D01*
X314629Y326235D01*
X314183Y325157D01*
X314031Y324000D01*
X314183Y322843D01*
X314629Y321765D01*
X315340Y320840D01*
X316265Y320129D01*
X317343Y319683D01*
X318500Y319531D01*
X319500D01*
X320657Y319683D01*
X321735Y320129D01*
X322660Y320840D01*
X323371Y321765D01*
X323465Y321993D01*
X336000D01*
X336768Y322146D01*
X337419Y322581D01*
X345222Y330383D01*
X345657Y331034D01*
X345810Y331803D01*
Y334301D01*
X346478Y334578D01*
X347341Y335241D01*
X348004Y336104D01*
X348421Y337110D01*
X348563Y338189D01*
X348421Y339268D01*
X348004Y340274D01*
X347341Y341137D01*
X346478Y341800D01*
X346294Y341876D01*
Y342376D01*
X346478Y342452D01*
X347341Y343115D01*
X348004Y343978D01*
X348421Y344984D01*
X348563Y346063D01*
X348421Y347142D01*
X348004Y348148D01*
X347341Y349011D01*
X346478Y349674D01*
X346294Y349750D01*
Y350250D01*
X346478Y350326D01*
X347341Y350989D01*
X348004Y351852D01*
X348421Y352858D01*
X348563Y353937D01*
X348421Y355016D01*
X348004Y356022D01*
X347341Y356885D01*
X346478Y357548D01*
X346294Y357624D01*
Y358124D01*
X346478Y358200D01*
X347341Y358863D01*
X348004Y359726D01*
X348421Y360732D01*
X348563Y361811D01*
X348421Y362890D01*
X348004Y363896D01*
X347341Y364759D01*
X346478Y365422D01*
X345472Y365839D01*
X344393Y365981D01*
X343212D01*
X342133Y365839D01*
X341127Y365422D01*
X340264Y364759D01*
X339601Y363896D01*
X339569Y363818D01*
X334071D01*
X332906Y364984D01*
Y367854D01*
X327303D01*
X327197Y367854D01*
D02*
G37*
G36*
X127100Y359200D02*
X124887D01*
Y355987D01*
X127100D01*
Y359200D01*
D02*
G37*
G36*
X123313D02*
X121100D01*
Y355987D01*
X123313D01*
Y359200D01*
D02*
G37*
G36*
X130884Y359042D02*
X129998D01*
X129480Y358939D01*
X129040Y358645D01*
X128746Y358205D01*
X128643Y357687D01*
Y354833D01*
X128746Y354314D01*
X129040Y353875D01*
X129480Y353581D01*
X129998Y353478D01*
X130884D01*
X131402Y353581D01*
X131842Y353875D01*
X131906Y353887D01*
X132109Y353752D01*
X132213Y353731D01*
Y354701D01*
X132239Y354833D01*
Y356260D01*
Y357687D01*
X132213Y357819D01*
Y358789D01*
X132109Y358768D01*
X131906Y358632D01*
X131842Y358645D01*
X131402Y358939D01*
X130884Y359042D01*
D02*
G37*
G36*
X127100Y354413D02*
X124887D01*
Y351200D01*
X127100D01*
Y354413D01*
D02*
G37*
G36*
X123313D02*
X121100D01*
Y351200D01*
X123313D01*
Y354413D01*
D02*
G37*
G36*
X174673Y334571D02*
X172787D01*
Y332685D01*
X174673D01*
Y334571D01*
D02*
G37*
G36*
X171213D02*
X169327D01*
Y332685D01*
X171213D01*
Y334571D01*
D02*
G37*
G36*
X135500Y344507D02*
X124423D01*
X123654Y344354D01*
X123003Y343919D01*
X122081Y342997D01*
X121646Y342346D01*
X121493Y341578D01*
Y338010D01*
X121472Y337998D01*
X120809Y337335D01*
X120341Y336523D01*
X120098Y335618D01*
Y334681D01*
X120341Y333776D01*
X120809Y332964D01*
X121472Y332302D01*
X121562Y332250D01*
Y331750D01*
X121472Y331698D01*
X120809Y331036D01*
X120341Y330224D01*
X120098Y329319D01*
Y328382D01*
X120341Y327477D01*
X120809Y326665D01*
X121472Y326002D01*
X122284Y325534D01*
X123189Y325291D01*
X124126D01*
X124743Y325457D01*
X125004Y325256D01*
X125234Y324397D01*
X125679Y323627D01*
X126308Y322998D01*
X127078Y322553D01*
X127594Y322415D01*
Y325701D01*
X128382D01*
Y326488D01*
X131668D01*
X131530Y327005D01*
X131085Y327775D01*
X130456Y328404D01*
X130297Y328496D01*
Y328996D01*
X130567Y329152D01*
X131230Y329815D01*
X131333Y329993D01*
X137169D01*
X141081Y326081D01*
X141732Y325646D01*
X142500Y325493D01*
X145101D01*
X145234Y325293D01*
X145703Y324980D01*
X146256Y324870D01*
X151295D01*
X151848Y324980D01*
X152317Y325293D01*
X152630Y325762D01*
X152740Y326315D01*
Y328205D01*
X152630Y328758D01*
X152317Y329227D01*
X152256Y329268D01*
X152460Y329573D01*
X152556Y330055D01*
Y330213D01*
X148776D01*
X144995D01*
Y330055D01*
X145005Y330007D01*
X144595Y329507D01*
X143331D01*
X139419Y333419D01*
X138768Y333854D01*
X138000Y334007D01*
X131333D01*
X131230Y334185D01*
X130567Y334848D01*
X130478Y334900D01*
Y335400D01*
X130567Y335451D01*
X131230Y336114D01*
X131698Y336926D01*
X131941Y337831D01*
Y338768D01*
X131698Y339673D01*
X131514Y339993D01*
X131802Y340493D01*
X134669D01*
X141841Y333321D01*
X142492Y332886D01*
X143260Y332733D01*
X144694D01*
X144783Y332665D01*
X145053Y332233D01*
X144995Y331945D01*
Y331787D01*
X148776D01*
X152556D01*
Y331945D01*
X152460Y332427D01*
X152256Y332733D01*
X152317Y332773D01*
X152630Y333242D01*
X152740Y333795D01*
Y335685D01*
X152630Y336238D01*
X152317Y336707D01*
X151848Y337020D01*
X151295Y337130D01*
X146256D01*
X145703Y337020D01*
X145294Y336747D01*
X144091D01*
X136919Y343919D01*
X136268Y344354D01*
X135500Y344507D01*
D02*
G37*
G36*
X174673Y331110D02*
X172787D01*
Y329224D01*
X174673D01*
Y331110D01*
D02*
G37*
G36*
X171213D02*
X169327D01*
Y329224D01*
X171213D01*
Y331110D01*
D02*
G37*
G36*
X277396Y329852D02*
X275510D01*
Y327966D01*
X277396D01*
Y329852D01*
D02*
G37*
G36*
X258628D02*
X256742D01*
Y327966D01*
X258628D01*
Y329852D01*
D02*
G37*
G36*
X273936D02*
X272050D01*
Y327966D01*
X273936D01*
Y329852D01*
D02*
G37*
G36*
X255167D02*
X253281D01*
Y327966D01*
X255167D01*
Y329852D01*
D02*
G37*
G36*
X277396Y326392D02*
X275510D01*
Y324506D01*
X277396D01*
Y326392D01*
D02*
G37*
G36*
X273936D02*
X272050D01*
Y324506D01*
X273936D01*
Y326392D01*
D02*
G37*
G36*
X266673D02*
X264787D01*
Y324506D01*
X266673D01*
Y326392D01*
D02*
G37*
G36*
X263213D02*
X261327D01*
Y324506D01*
X263213D01*
Y326392D01*
D02*
G37*
G36*
X258628D02*
X256742D01*
Y324506D01*
X258628D01*
Y326392D01*
D02*
G37*
G36*
X255167D02*
X253281D01*
Y324506D01*
X255167D01*
Y326392D01*
D02*
G37*
G36*
X131668Y324913D02*
X129169D01*
Y322415D01*
X129686Y322553D01*
X130456Y322998D01*
X131085Y323627D01*
X131530Y324397D01*
X131668Y324913D01*
D02*
G37*
G36*
X162161Y322673D02*
X160276D01*
Y320787D01*
X162161D01*
Y322673D01*
D02*
G37*
G36*
Y319213D02*
X160276D01*
Y317327D01*
X162161D01*
Y319213D01*
D02*
G37*
G36*
Y316673D02*
X160276D01*
Y314787D01*
X162161D01*
Y316673D01*
D02*
G37*
G36*
Y313213D02*
X160276D01*
Y311327D01*
X162161D01*
Y313213D01*
D02*
G37*
G36*
X289615Y318320D02*
X286731D01*
X286270Y318228D01*
X286119Y318127D01*
X285962D01*
X285501Y318036D01*
X285335Y317925D01*
X284924Y317843D01*
X284677Y317678D01*
X284539Y317651D01*
X284292Y317486D01*
X284155Y317459D01*
X283908Y317294D01*
X283770Y317266D01*
X283379Y317005D01*
X283302Y316890D01*
X283187Y316813D01*
X283110Y316698D01*
X282995Y316621D01*
X282918Y316506D01*
X282802Y316428D01*
X282725Y316313D01*
X282610Y316236D01*
X282533Y316121D01*
X282418Y316044D01*
X282341Y315929D01*
X282225Y315851D01*
X282148Y315736D01*
X282033Y315659D01*
X281772Y315268D01*
X281748Y315149D01*
X281648Y315082D01*
X281387Y314692D01*
X281360Y314554D01*
X281195Y314307D01*
X281168Y314169D01*
X281003Y313922D01*
X280975Y313785D01*
X280810Y313538D01*
X280729Y313126D01*
X280618Y312961D01*
X280526Y312500D01*
Y312150D01*
X280426Y311999D01*
X280334Y311539D01*
Y308461D01*
X280426Y308001D01*
X280526Y307850D01*
Y307500D01*
X280618Y307039D01*
X280729Y306874D01*
X280810Y306462D01*
X280975Y306216D01*
X281003Y306078D01*
X281168Y305831D01*
X281195Y305693D01*
X281360Y305446D01*
X281387Y305308D01*
X281648Y304918D01*
X281748Y304851D01*
X281772Y304731D01*
X282033Y304341D01*
X282148Y304264D01*
X282225Y304149D01*
X282341Y304071D01*
X282418Y303956D01*
X282533Y303879D01*
X282610Y303764D01*
X282725Y303687D01*
X282802Y303572D01*
X282918Y303495D01*
X282995Y303379D01*
X283079Y303323D01*
X283139Y303068D01*
X282997Y302712D01*
X282802Y302582D01*
X282725Y302467D01*
X282610Y302390D01*
X282533Y302275D01*
X282418Y302198D01*
X282341Y302082D01*
X282225Y302005D01*
X281964Y301615D01*
X281873Y301154D01*
Y300000D01*
X281946Y299632D01*
X281655Y299574D01*
X281264Y299313D01*
X281003Y298922D01*
X280911Y298462D01*
Y294231D01*
Y289423D01*
Y284615D01*
X281003Y284155D01*
X281264Y283764D01*
X281655Y283503D01*
X282115Y283411D01*
X291923D01*
X292384Y283503D01*
X292775Y283764D01*
X293406Y283810D01*
X293578Y283695D01*
X293716Y283668D01*
X293962Y283503D01*
X294374Y283421D01*
X294539Y283311D01*
X295000Y283219D01*
X297500D01*
X297961Y283311D01*
X298126Y283421D01*
X298538Y283503D01*
X298784Y283668D01*
X298880Y283687D01*
X299154Y283503D01*
X299615Y283411D01*
X303654D01*
X304115Y283503D01*
X304505Y283764D01*
X304533D01*
X304924Y283503D01*
X305385Y283411D01*
X307885D01*
X308345Y283503D01*
X308736Y283764D01*
X308774Y283821D01*
X308962Y283695D01*
X309100Y283668D01*
X309347Y283503D01*
X309758Y283421D01*
X309924Y283311D01*
X310385Y283219D01*
X312885D01*
X313345Y283311D01*
X313511Y283421D01*
X313922Y283503D01*
X314169Y283668D01*
X314307Y283695D01*
X314554Y283860D01*
X314692Y283887D01*
X315082Y284149D01*
X315159Y284264D01*
X315275Y284341D01*
X315296Y284373D01*
X316435D01*
X316456Y284341D01*
X316571Y284264D01*
X316649Y284149D01*
X317039Y283887D01*
X317500Y283796D01*
X318654D01*
X319115Y283887D01*
X319505Y284149D01*
X319582Y284264D01*
X319698Y284341D01*
X319775Y284456D01*
X319890Y284533D01*
X320151Y284924D01*
X320179Y285062D01*
X320343Y285308D01*
X320435Y285769D01*
Y286346D01*
X320343Y286807D01*
X320179Y287054D01*
X320151Y287192D01*
X319890Y287582D01*
X319775Y287659D01*
X319698Y287775D01*
X319582Y287852D01*
X319505Y287967D01*
X319115Y288228D01*
X318654Y288320D01*
X317763D01*
X317375Y288717D01*
X317349Y288799D01*
X317358Y288846D01*
Y290962D01*
X317266Y291422D01*
X317166Y291573D01*
Y291923D01*
X317074Y292384D01*
X316964Y292549D01*
X316882Y292961D01*
X316771Y293126D01*
X316689Y293538D01*
X316525Y293784D01*
X316497Y293922D01*
X316332Y294169D01*
X316305Y294307D01*
X316044Y294698D01*
X315929Y294775D01*
X315851Y294890D01*
X315736Y294967D01*
X315659Y295082D01*
X315544Y295159D01*
X315467Y295275D01*
X315352Y295352D01*
X315275Y295467D01*
X314884Y295728D01*
X314746Y295755D01*
X314499Y295920D01*
X314362Y295948D01*
X314115Y296113D01*
X313977Y296140D01*
X313730Y296305D01*
X313269Y296396D01*
X311154D01*
X310820Y296840D01*
Y298462D01*
X310728Y298922D01*
X310467Y299313D01*
X310076Y299574D01*
X309615Y299666D01*
X305385D01*
X304924Y299574D01*
X304533Y299313D01*
X304272Y298922D01*
X304180Y298462D01*
Y294741D01*
X303854Y294568D01*
X303680Y294543D01*
X303621Y294582D01*
X303544Y294698D01*
X303429Y294775D01*
X303351Y294890D01*
X303236Y294967D01*
X303159Y295082D01*
X303044Y295159D01*
X302967Y295275D01*
X302576Y295536D01*
X302438Y295563D01*
X302192Y295728D01*
X302054Y295755D01*
X301807Y295920D01*
X301395Y296002D01*
X301230Y296113D01*
X300769Y296204D01*
X300611D01*
X300461Y296305D01*
X300000Y296396D01*
X296538D01*
X296078Y296305D01*
X295927Y296204D01*
X295769D01*
X295308Y296113D01*
X295143Y296002D01*
X294731Y295920D01*
X294485Y295755D01*
X294347Y295728D01*
X294100Y295563D01*
X293962Y295536D01*
X293571Y295275D01*
X293495Y295159D01*
X293379Y295082D01*
X293302Y294967D01*
X293187Y294890D01*
X293110Y294775D01*
X292995Y294698D01*
X292918Y294582D01*
X292802Y294505D01*
X292725Y294390D01*
X292610Y294313D01*
X292349Y293922D01*
X292325Y293803D01*
X292225Y293736D01*
X291964Y293345D01*
X291882Y292934D01*
X291772Y292769D01*
X291680Y292308D01*
Y291923D01*
X291772Y291462D01*
X292033Y291072D01*
X292228Y290941D01*
X292374Y290575D01*
X292322Y290323D01*
X292157Y290076D01*
X292133Y289957D01*
X292033Y289890D01*
X291772Y289499D01*
X291745Y289362D01*
X291691Y289281D01*
X287743D01*
Y293654D01*
Y298462D01*
X287651Y298922D01*
X287390Y299313D01*
X286999Y299574D01*
X286754Y299623D01*
X286536Y299676D01*
X286391Y300166D01*
X286397Y300192D01*
Y301154D01*
X286379Y301240D01*
X286660Y301592D01*
X286802Y301680D01*
X289615D01*
X290076Y301772D01*
X290227Y301873D01*
X290385D01*
X290845Y301964D01*
X291092Y302129D01*
X291230Y302157D01*
X291395Y302267D01*
X291807Y302349D01*
X292198Y302610D01*
X292264Y302710D01*
X292384Y302734D01*
X292775Y302995D01*
X292852Y303110D01*
X292967Y303187D01*
X293044Y303302D01*
X293159Y303379D01*
X293236Y303495D01*
X293352Y303572D01*
X293429Y303687D01*
X293544Y303764D01*
X293621Y303879D01*
X293736Y303956D01*
X293813Y304071D01*
X293929Y304149D01*
X294005Y304264D01*
X294121Y304341D01*
X294198Y304456D01*
X294313Y304533D01*
X294390Y304648D01*
X294505Y304725D01*
X294766Y305116D01*
X294834Y305128D01*
X295334Y304710D01*
Y303077D01*
X295426Y302616D01*
X295687Y302225D01*
X296078Y301964D01*
X296538Y301873D01*
X300577D01*
X301038Y301964D01*
X301429Y302225D01*
X301690Y302616D01*
X301781Y303077D01*
Y303941D01*
X302281Y304359D01*
X302349Y304347D01*
X302514Y304100D01*
X302541Y303962D01*
X302706Y303715D01*
X302734Y303578D01*
X302899Y303331D01*
X302926Y303193D01*
X303091Y302946D01*
X303118Y302808D01*
X303379Y302418D01*
X303495Y302341D01*
X303572Y302225D01*
X303962Y301964D01*
X304423Y301873D01*
X306539D01*
X306827Y301930D01*
X307115Y301873D01*
X309038D01*
X309499Y301964D01*
X309890Y302225D01*
X310151Y302616D01*
X310243Y303077D01*
Y303462D01*
X310151Y303922D01*
X309986Y304169D01*
X309959Y304307D01*
X309794Y304554D01*
X309766Y304692D01*
X309601Y304938D01*
X309574Y305076D01*
X309409Y305323D01*
X309382Y305461D01*
X309217Y305708D01*
X309190Y305845D01*
X309025Y306092D01*
X308997Y306230D01*
X308832Y306477D01*
X308805Y306615D01*
X308640Y306861D01*
X308613Y306999D01*
X308448Y307246D01*
X308420Y307384D01*
X308255Y307631D01*
X308228Y307769D01*
X308063Y308015D01*
X308036Y308153D01*
X307871Y308400D01*
X307843Y308538D01*
X307679Y308785D01*
X307651Y308922D01*
X307486Y309169D01*
X307459Y309307D01*
X307294Y309554D01*
X307266Y309692D01*
X307101Y309938D01*
X307074Y310076D01*
X306909Y310323D01*
X306882Y310461D01*
X306717Y310708D01*
X306690Y310845D01*
X306525Y311092D01*
X306497Y311230D01*
X306332Y311477D01*
X306305Y311615D01*
X306259Y311683D01*
X306497Y312039D01*
X306521Y312159D01*
X306621Y312225D01*
X306882Y312616D01*
X306906Y312736D01*
X307005Y312802D01*
X307266Y313193D01*
X307290Y313313D01*
X307390Y313379D01*
X307651Y313770D01*
X307675Y313890D01*
X307775Y313956D01*
X308036Y314347D01*
X308054Y314440D01*
X308329Y314572D01*
X308796Y314295D01*
Y313654D01*
X308887Y313193D01*
X309149Y312802D01*
X309149Y312802D01*
X309272Y312192D01*
X309245Y312054D01*
X309080Y311807D01*
X308988Y311346D01*
Y310962D01*
X309080Y310501D01*
X309341Y310110D01*
X309732Y309849D01*
X310192Y309757D01*
X311923D01*
X312384Y309849D01*
X312775Y310110D01*
X313036Y310501D01*
X313063Y310638D01*
X313228Y310885D01*
X313252Y311005D01*
X313351Y311071D01*
X313613Y311462D01*
X313636Y311582D01*
X313736Y311649D01*
X313997Y312039D01*
X314025Y312177D01*
X314190Y312424D01*
X314213Y312543D01*
X314313Y312610D01*
X314574Y313001D01*
X314601Y313139D01*
X314766Y313385D01*
X314858Y313846D01*
Y316923D01*
X314766Y317384D01*
X314505Y317775D01*
X314115Y318036D01*
X313654Y318127D01*
X310000D01*
X309539Y318036D01*
X309135Y317783D01*
X308730Y318036D01*
X308269Y318127D01*
X306539D01*
X306346Y318089D01*
X306154Y318127D01*
X304231D01*
X303770Y318036D01*
X303379Y317775D01*
X303118Y317384D01*
X303094Y317264D01*
X302995Y317198D01*
X302734Y316807D01*
X302710Y316687D01*
X302610Y316621D01*
X302349Y316230D01*
X301842Y316247D01*
X301781Y316279D01*
Y316923D01*
X301690Y317384D01*
X301429Y317775D01*
X301038Y318036D01*
X300577Y318127D01*
X296538D01*
X296078Y318036D01*
X295687Y317775D01*
X295426Y317384D01*
X295334Y316923D01*
Y315308D01*
X294834Y315067D01*
X294576Y315261D01*
X294574Y315268D01*
X294313Y315659D01*
X294198Y315736D01*
X294121Y315851D01*
X294005Y315929D01*
X293929Y316044D01*
X293813Y316121D01*
X293736Y316236D01*
X293621Y316313D01*
X293544Y316428D01*
X293429Y316506D01*
X293352Y316621D01*
X293236Y316698D01*
X293159Y316813D01*
X292769Y317074D01*
X292649Y317098D01*
X292582Y317198D01*
X292192Y317459D01*
X292054Y317486D01*
X291807Y317651D01*
X291669Y317678D01*
X291422Y317843D01*
X291011Y317925D01*
X290845Y318036D01*
X290385Y318127D01*
X290227D01*
X290076Y318228D01*
X289615Y318320D01*
D02*
G37*
G36*
X127161Y303673D02*
X125276D01*
Y301787D01*
X127161D01*
Y303673D01*
D02*
G37*
G36*
X321731Y314858D02*
X318846D01*
X318385Y314766D01*
X318235Y314666D01*
X318077D01*
X317616Y314574D01*
X317451Y314464D01*
X317039Y314382D01*
X316792Y314217D01*
X316654Y314190D01*
X316264Y313929D01*
X316197Y313829D01*
X316078Y313805D01*
X315687Y313544D01*
X315610Y313429D01*
X315495Y313351D01*
X315418Y313236D01*
X315302Y313159D01*
X315041Y312769D01*
X315018Y312649D01*
X314918Y312582D01*
X314657Y312192D01*
X314629Y312054D01*
X314464Y311807D01*
X314383Y311395D01*
X314272Y311230D01*
X314180Y310769D01*
Y309423D01*
X314272Y308962D01*
X314383Y308797D01*
X314464Y308385D01*
X314629Y308138D01*
X314657Y308001D01*
X314822Y307754D01*
X314849Y307616D01*
X314601Y307086D01*
X314539Y307074D01*
X314148Y306813D01*
X313887Y306422D01*
X313796Y305961D01*
Y305385D01*
X313887Y304924D01*
X314052Y304677D01*
X314080Y304539D01*
X314341Y304149D01*
X314441Y304082D01*
X314464Y303962D01*
X314725Y303572D01*
X314841Y303495D01*
X314918Y303379D01*
X315033Y303302D01*
X315110Y303187D01*
X315225Y303110D01*
X315302Y302995D01*
X315693Y302734D01*
X315813Y302710D01*
X315879Y302610D01*
X316270Y302349D01*
X316408Y302322D01*
X316654Y302157D01*
X317066Y302075D01*
X317231Y301964D01*
X317692Y301873D01*
X317850D01*
X318001Y301772D01*
X318461Y301680D01*
X321731D01*
X322192Y301772D01*
X322342Y301873D01*
X322692D01*
X323153Y301964D01*
X323400Y302129D01*
X323538Y302157D01*
X323703Y302267D01*
X324115Y302349D01*
X324505Y302610D01*
X324572Y302710D01*
X324692Y302734D01*
X325082Y302995D01*
X325159Y303110D01*
X325275Y303187D01*
X325352Y303302D01*
X325467Y303379D01*
X325544Y303495D01*
X325659Y303572D01*
X325736Y303687D01*
X325851Y303764D01*
X326113Y304154D01*
X326140Y304292D01*
X326305Y304539D01*
X326332Y304677D01*
X326497Y304924D01*
X326589Y305385D01*
Y305542D01*
X326690Y305693D01*
X326781Y306154D01*
Y306923D01*
X326690Y307384D01*
X326589Y307535D01*
Y307692D01*
X326497Y308153D01*
X326332Y308400D01*
X326305Y308538D01*
X326140Y308785D01*
X326113Y308922D01*
X325851Y309313D01*
X325736Y309390D01*
X325711Y309428D01*
X325680Y309696D01*
X325712Y309983D01*
X325779Y310062D01*
X325851Y310110D01*
X326113Y310501D01*
X326204Y310962D01*
Y311346D01*
X326113Y311807D01*
X325948Y312054D01*
X325920Y312192D01*
X325659Y312582D01*
X325544Y312659D01*
X325467Y312775D01*
X325352Y312852D01*
X325275Y312967D01*
X325159Y313044D01*
X325082Y313159D01*
X324967Y313236D01*
X324890Y313351D01*
X324775Y313429D01*
X324698Y313544D01*
X324582Y313621D01*
X324505Y313736D01*
X324390Y313813D01*
X324313Y313929D01*
X323922Y314190D01*
X323784Y314217D01*
X323538Y314382D01*
X323126Y314464D01*
X322961Y314574D01*
X322500Y314666D01*
X322342D01*
X322192Y314766D01*
X321731Y314858D01*
D02*
G37*
G36*
X195889Y301962D02*
X195644Y301897D01*
X195035Y301545D01*
X194537Y301047D01*
X194185Y300437D01*
X194120Y300193D01*
X195889D01*
Y301962D01*
D02*
G37*
G36*
X256763Y308356D02*
X256037D01*
X255336Y308168D01*
X254708Y307805D01*
X254309Y307406D01*
X253292D01*
X252601Y307269D01*
X252015Y306877D01*
X251323Y306185D01*
X250931Y305599D01*
X250794Y304908D01*
Y303805D01*
X249546D01*
Y298097D01*
X249546D01*
Y297703D01*
X249546D01*
Y291995D01*
X255254D01*
Y293042D01*
X257049D01*
X257740Y293180D01*
X258326Y293571D01*
X260077Y295323D01*
X260469Y295909D01*
X260606Y296600D01*
Y300952D01*
X260948Y301294D01*
X263052D01*
X263229Y300865D01*
X263940Y299940D01*
X264865Y299229D01*
X265943Y298783D01*
X267100Y298631D01*
X268100D01*
X269257Y298783D01*
X270335Y299229D01*
X271260Y299940D01*
X271971Y300865D01*
X272417Y301943D01*
X272569Y303100D01*
X272417Y304257D01*
X271971Y305335D01*
X271260Y306260D01*
X270335Y306971D01*
X269257Y307417D01*
X268100Y307569D01*
X267100D01*
X265943Y307417D01*
X264865Y306971D01*
X263940Y306260D01*
X263229Y305335D01*
X263052Y304906D01*
X260200D01*
X259550Y304777D01*
X259375Y304888D01*
X259122Y305112D01*
X259156Y305237D01*
Y305963D01*
X258968Y306664D01*
X258605Y307292D01*
X258092Y307805D01*
X257464Y308168D01*
X256763Y308356D01*
D02*
G37*
G36*
X127161Y300213D02*
X125276D01*
Y298327D01*
X127161D01*
Y300213D01*
D02*
G37*
G36*
X247373Y297522D02*
X245487D01*
Y295636D01*
X247373D01*
Y297522D01*
D02*
G37*
G36*
X243913D02*
X242027D01*
Y295636D01*
X243913D01*
Y297522D01*
D02*
G37*
G36*
X268387Y297349D02*
Y293887D01*
X272283D01*
X272241Y294210D01*
X271812Y295243D01*
X271131Y296131D01*
X270243Y296812D01*
X269210Y297241D01*
X268387Y297349D01*
D02*
G37*
G36*
X266813D02*
X265990Y297241D01*
X264957Y296812D01*
X264069Y296131D01*
X263388Y295243D01*
X262959Y294210D01*
X262917Y293887D01*
X266813D01*
Y297349D01*
D02*
G37*
G36*
X247373Y294061D02*
X245487D01*
Y292176D01*
X247373D01*
Y294061D01*
D02*
G37*
G36*
X243913D02*
X242027D01*
Y292176D01*
X243913D01*
Y294061D01*
D02*
G37*
G36*
X111287Y295349D02*
Y291887D01*
X115183D01*
X115141Y292210D01*
X114712Y293243D01*
X114031Y294131D01*
X113143Y294812D01*
X112109Y295241D01*
X111287Y295349D01*
D02*
G37*
G36*
X109713D02*
X108890Y295241D01*
X107857Y294812D01*
X106969Y294131D01*
X106288Y293243D01*
X105859Y292210D01*
X105817Y291887D01*
X109713D01*
Y295349D01*
D02*
G37*
G36*
X127161Y292673D02*
X125276D01*
Y290787D01*
X127161D01*
Y292673D01*
D02*
G37*
G36*
X272283Y292313D02*
X268387D01*
Y288851D01*
X269210Y288959D01*
X270243Y289388D01*
X271131Y290069D01*
X271812Y290957D01*
X272241Y291990D01*
X272283Y292313D01*
D02*
G37*
G36*
X266813D02*
X262917D01*
X262959Y291990D01*
X263388Y290957D01*
X264069Y290069D01*
X264957Y289388D01*
X265990Y288959D01*
X266813Y288851D01*
Y292313D01*
D02*
G37*
G36*
X127161Y289213D02*
X125276D01*
Y287327D01*
X127161D01*
Y289213D01*
D02*
G37*
G36*
X115183Y290313D02*
X111287D01*
Y286851D01*
X112109Y286959D01*
X113143Y287388D01*
X114031Y288069D01*
X114712Y288957D01*
X115141Y289990D01*
X115183Y290313D01*
D02*
G37*
G36*
X109713D02*
X105817D01*
X105859Y289990D01*
X106288Y288957D01*
X106969Y288069D01*
X107857Y287388D01*
X108890Y286959D01*
X109713Y286851D01*
Y290313D01*
D02*
G37*
G36*
X182642Y288413D02*
X177705D01*
Y286232D01*
X182642D01*
Y288413D01*
D02*
G37*
G36*
X176130D02*
X171193D01*
Y286232D01*
X176130D01*
Y288413D01*
D02*
G37*
G36*
X182642Y284658D02*
X177705D01*
Y282476D01*
X182642D01*
Y284658D01*
D02*
G37*
G36*
X176130D02*
X171193D01*
Y282476D01*
X176130D01*
Y284658D01*
D02*
G37*
G36*
X347198Y293287D02*
X345802D01*
X344433Y293014D01*
X343143Y292480D01*
X341983Y291705D01*
X340996Y290718D01*
X340220Y289557D01*
X339686Y288267D01*
X339413Y286898D01*
Y285502D01*
X339686Y284133D01*
X340220Y282843D01*
X340996Y281682D01*
X341983Y280696D01*
X343143Y279920D01*
X344433Y279386D01*
X345802Y279113D01*
X347198D01*
X348567Y279386D01*
X349857Y279920D01*
X351017Y280696D01*
X352005Y281682D01*
X352780Y282843D01*
X353314Y284133D01*
X353587Y285502D01*
Y286898D01*
X353314Y288267D01*
X352780Y289557D01*
X352005Y290718D01*
X351017Y291705D01*
X349857Y292480D01*
X348567Y293014D01*
X347198Y293287D01*
D02*
G37*
%LPD*%
G36*
X308269Y316731D02*
X308077D01*
Y316539D01*
X307885D01*
Y316346D01*
Y316154D01*
X307692D01*
Y315962D01*
X307500D01*
Y315769D01*
Y315577D01*
X307308D01*
Y315385D01*
X307115D01*
Y315192D01*
X306923D01*
Y315000D01*
Y314808D01*
X306731D01*
Y314615D01*
X306539D01*
Y314423D01*
Y314231D01*
X306346D01*
Y314038D01*
X306154D01*
Y313846D01*
Y313654D01*
X305961D01*
Y313461D01*
X305769D01*
Y313269D01*
Y313077D01*
X305577D01*
Y312885D01*
X305385D01*
Y312692D01*
Y312500D01*
X305192D01*
Y312308D01*
X305000D01*
Y312115D01*
X304808D01*
Y311923D01*
Y311731D01*
Y311539D01*
X305000D01*
Y311346D01*
Y311154D01*
X305192D01*
Y310962D01*
Y310769D01*
X305385D01*
Y310577D01*
Y310385D01*
X305577D01*
Y310192D01*
Y310000D01*
X305769D01*
Y309808D01*
Y309615D01*
X305961D01*
Y309423D01*
Y309231D01*
X306154D01*
Y309038D01*
Y308846D01*
X306346D01*
Y308654D01*
Y308461D01*
X306539D01*
Y308269D01*
Y308077D01*
X306731D01*
Y307885D01*
Y307692D01*
X306923D01*
Y307500D01*
Y307308D01*
X307115D01*
Y307115D01*
Y306923D01*
X307308D01*
Y306731D01*
Y306539D01*
X307500D01*
Y306346D01*
Y306154D01*
X307692D01*
Y305961D01*
Y305769D01*
X307885D01*
Y305577D01*
Y305385D01*
X308077D01*
Y305192D01*
Y305000D01*
X308269D01*
Y304808D01*
Y304615D01*
X308461D01*
Y304423D01*
Y304231D01*
X308654D01*
Y304039D01*
Y303846D01*
X308846D01*
Y303654D01*
Y303462D01*
X309038D01*
Y303269D01*
Y303077D01*
X307115D01*
Y303269D01*
X306923D01*
Y303462D01*
Y303654D01*
X306731D01*
Y303846D01*
Y304039D01*
X306539D01*
Y304231D01*
Y304423D01*
X306346D01*
Y304615D01*
X306154D01*
Y304808D01*
Y305000D01*
Y305192D01*
X306346D01*
Y305385D01*
Y305577D01*
X306539D01*
Y305769D01*
Y305961D01*
Y306154D01*
Y306346D01*
X306346D01*
Y306539D01*
Y306731D01*
X306154D01*
Y306923D01*
X305769D01*
Y307115D01*
X304808D01*
Y306923D01*
X304615D01*
Y306731D01*
X304423D01*
Y306539D01*
X304231D01*
Y306346D01*
Y306154D01*
X304039D01*
Y305961D01*
Y305769D01*
X304231D01*
Y305577D01*
Y305385D01*
Y305192D01*
X304423D01*
Y305000D01*
X304615D01*
Y304808D01*
X305769D01*
Y304615D01*
X305961D01*
Y304423D01*
Y304231D01*
X306154D01*
Y304039D01*
Y303846D01*
X306346D01*
Y303654D01*
Y303462D01*
X306539D01*
Y303269D01*
Y303077D01*
X304423D01*
Y303269D01*
X304231D01*
Y303462D01*
Y303654D01*
X304039D01*
Y303846D01*
Y304039D01*
X303846D01*
Y304231D01*
Y304423D01*
X303654D01*
Y304615D01*
Y304808D01*
X303462D01*
Y305000D01*
Y305192D01*
X303269D01*
Y305385D01*
Y305577D01*
Y305769D01*
X303077D01*
Y305961D01*
Y306154D01*
X302885D01*
Y306346D01*
Y306539D01*
X302692D01*
Y306731D01*
Y306923D01*
X302500D01*
Y307115D01*
Y307308D01*
X302308D01*
Y307500D01*
Y307692D01*
Y307885D01*
X302115D01*
Y308077D01*
X301923D01*
Y307885D01*
X301731D01*
Y307692D01*
X301538D01*
Y307500D01*
Y307308D01*
X301346D01*
Y307115D01*
X301154D01*
Y306923D01*
X300961D01*
Y306731D01*
Y306539D01*
X300769D01*
Y306346D01*
X300577D01*
Y306154D01*
Y305961D01*
Y305769D01*
Y305577D01*
Y305385D01*
Y305192D01*
Y305000D01*
Y304808D01*
Y304615D01*
Y304423D01*
Y304231D01*
Y304039D01*
Y303846D01*
Y303654D01*
Y303462D01*
Y303269D01*
Y303077D01*
X296538D01*
Y303269D01*
Y303462D01*
Y303654D01*
Y303846D01*
Y304039D01*
Y304231D01*
Y304423D01*
Y304615D01*
Y304808D01*
Y305000D01*
Y305192D01*
Y305385D01*
Y305577D01*
Y305769D01*
Y305961D01*
Y306154D01*
Y306346D01*
Y306539D01*
Y306731D01*
Y306923D01*
Y307115D01*
Y307308D01*
Y307500D01*
Y307692D01*
Y307885D01*
Y308077D01*
Y308269D01*
Y308461D01*
Y308654D01*
Y308846D01*
Y309038D01*
Y309231D01*
Y309423D01*
Y309615D01*
Y309808D01*
Y310000D01*
Y310192D01*
Y310385D01*
Y310577D01*
Y310769D01*
Y310962D01*
Y311154D01*
Y311346D01*
Y311539D01*
Y311731D01*
Y311923D01*
Y312115D01*
Y312308D01*
Y312500D01*
Y312692D01*
Y312885D01*
Y313077D01*
Y313269D01*
Y313461D01*
Y313654D01*
Y313846D01*
Y314038D01*
Y314231D01*
Y314423D01*
Y314615D01*
Y314808D01*
Y315000D01*
Y315192D01*
Y315385D01*
Y315577D01*
Y315769D01*
Y315962D01*
Y316154D01*
Y316346D01*
Y316539D01*
Y316731D01*
Y316923D01*
X300577D01*
Y316731D01*
Y316539D01*
Y316346D01*
Y316154D01*
Y315962D01*
Y315769D01*
Y315577D01*
Y315385D01*
Y315192D01*
Y315000D01*
Y314808D01*
Y314615D01*
Y314423D01*
Y314231D01*
Y314038D01*
Y313846D01*
Y313654D01*
Y313461D01*
Y313269D01*
Y313077D01*
Y312885D01*
Y312692D01*
Y312500D01*
Y312308D01*
Y312115D01*
Y311923D01*
Y311731D01*
Y311539D01*
X300769D01*
Y311731D01*
X300961D01*
Y311923D01*
X301154D01*
Y312115D01*
Y312308D01*
X301346D01*
Y312500D01*
X301538D01*
Y312692D01*
Y312885D01*
X301731D01*
Y313077D01*
X301923D01*
Y313269D01*
Y313461D01*
X302115D01*
Y313654D01*
X302308D01*
Y313846D01*
Y314038D01*
X302500D01*
Y314231D01*
X302692D01*
Y314423D01*
Y314615D01*
X302885D01*
Y314808D01*
X303077D01*
Y315000D01*
Y315192D01*
X303269D01*
Y315385D01*
X303462D01*
Y315577D01*
Y315769D01*
X303654D01*
Y315962D01*
X303846D01*
Y316154D01*
Y316346D01*
X304039D01*
Y316539D01*
X304231D01*
Y316731D01*
Y316923D01*
X306154D01*
Y316731D01*
X305961D01*
Y316539D01*
X305769D01*
Y316346D01*
Y316154D01*
X305577D01*
Y315962D01*
X305385D01*
Y315769D01*
Y315577D01*
X305192D01*
Y315385D01*
X305000D01*
Y315192D01*
Y315000D01*
X304808D01*
Y314808D01*
X304615D01*
Y314615D01*
X304423D01*
Y314423D01*
Y314231D01*
X304231D01*
Y314038D01*
X304039D01*
Y313846D01*
Y313654D01*
X303846D01*
Y313461D01*
X303654D01*
Y313269D01*
Y313077D01*
X303462D01*
Y312885D01*
X303269D01*
Y312692D01*
X303077D01*
Y312885D01*
X302500D01*
Y312692D01*
X302115D01*
Y312500D01*
X301923D01*
Y312308D01*
X301731D01*
Y312115D01*
Y311923D01*
X301538D01*
Y311731D01*
Y311539D01*
Y311346D01*
X301731D01*
Y311154D01*
Y310962D01*
X301923D01*
Y310769D01*
X302115D01*
Y310577D01*
X302500D01*
Y310385D01*
X303077D01*
Y310577D01*
X303462D01*
Y310769D01*
X303654D01*
Y310962D01*
X303846D01*
Y311154D01*
Y311346D01*
X304039D01*
Y311539D01*
Y311731D01*
Y311923D01*
X303846D01*
Y312115D01*
Y312308D01*
X303654D01*
Y312500D01*
Y312692D01*
X303846D01*
Y312885D01*
X304039D01*
Y313077D01*
Y313269D01*
X304231D01*
Y313461D01*
X304423D01*
Y313654D01*
Y313846D01*
X304615D01*
Y314038D01*
X304808D01*
Y314231D01*
Y314423D01*
X305000D01*
Y314615D01*
X305192D01*
Y314808D01*
Y315000D01*
X305385D01*
Y315192D01*
X305577D01*
Y315385D01*
Y315577D01*
X305769D01*
Y315769D01*
X305961D01*
Y315962D01*
X306154D01*
Y316154D01*
Y316346D01*
X306346D01*
Y316539D01*
X306539D01*
Y316731D01*
Y316923D01*
X308269D01*
Y316731D01*
D02*
G37*
G36*
X313654D02*
Y316539D01*
Y316346D01*
Y316154D01*
Y315962D01*
Y315769D01*
Y315577D01*
Y315385D01*
Y315192D01*
Y315000D01*
Y314808D01*
Y314615D01*
Y314423D01*
Y314231D01*
Y314038D01*
Y313846D01*
X313461D01*
Y313654D01*
Y313461D01*
X313269D01*
Y313269D01*
X313077D01*
Y313077D01*
Y312885D01*
X312885D01*
Y312692D01*
Y312500D01*
X312692D01*
Y312308D01*
X312500D01*
Y312115D01*
Y311923D01*
X312308D01*
Y311731D01*
X312115D01*
Y311539D01*
Y311346D01*
X311923D01*
Y311154D01*
Y310962D01*
X310192D01*
Y311154D01*
Y311346D01*
X310385D01*
Y311539D01*
Y311731D01*
X310577D01*
Y311923D01*
Y312115D01*
X310769D01*
Y312308D01*
Y312500D01*
X310962D01*
Y312692D01*
Y312885D01*
X311154D01*
Y313077D01*
Y313269D01*
X311346D01*
Y313461D01*
X311539D01*
Y313654D01*
X310000D01*
Y313846D01*
Y314038D01*
Y314231D01*
Y314423D01*
Y314615D01*
Y314808D01*
Y315000D01*
Y315192D01*
Y315385D01*
Y315577D01*
Y315769D01*
Y315962D01*
Y316154D01*
Y316346D01*
Y316539D01*
Y316731D01*
Y316923D01*
X313654D01*
Y316731D01*
D02*
G37*
G36*
X303077Y312308D02*
X303269D01*
Y312115D01*
X303462D01*
Y311923D01*
X303654D01*
Y311731D01*
Y311539D01*
Y311346D01*
X303462D01*
Y311154D01*
X303269D01*
Y310962D01*
X302308D01*
Y311154D01*
X302115D01*
Y311346D01*
Y311539D01*
Y311731D01*
Y311923D01*
Y312115D01*
X302308D01*
Y312308D01*
X302500D01*
Y312500D01*
X303077D01*
Y312308D01*
D02*
G37*
G36*
X305577Y306539D02*
X305961D01*
Y306346D01*
Y306154D01*
X306154D01*
Y305961D01*
Y305769D01*
Y305577D01*
X305961D01*
Y305385D01*
X305769D01*
Y305192D01*
X304808D01*
Y305385D01*
X304615D01*
Y305577D01*
Y305769D01*
Y305961D01*
Y306154D01*
Y306346D01*
X304808D01*
Y306539D01*
X305000D01*
Y306731D01*
X305577D01*
Y306539D01*
D02*
G37*
G36*
X289615Y316923D02*
X290385D01*
Y316731D01*
X290962D01*
Y316539D01*
X291346D01*
Y316346D01*
X291731D01*
Y316154D01*
X291923D01*
Y315962D01*
X292308D01*
Y315769D01*
X292500D01*
Y315577D01*
X292692D01*
Y315385D01*
X292885D01*
Y315192D01*
X293077D01*
Y315000D01*
X293269D01*
Y314808D01*
X293461D01*
Y314615D01*
Y314423D01*
X293654D01*
Y314231D01*
X293846D01*
Y314038D01*
Y313846D01*
X294039D01*
Y313654D01*
Y313461D01*
X294231D01*
Y313269D01*
Y313077D01*
Y312885D01*
X294423D01*
Y312692D01*
Y312500D01*
Y312308D01*
X294615D01*
Y312115D01*
Y311923D01*
Y311731D01*
Y311539D01*
Y311346D01*
Y311154D01*
X294808D01*
Y310962D01*
Y310769D01*
Y310577D01*
Y310385D01*
Y310192D01*
Y310000D01*
Y309808D01*
Y309615D01*
Y309423D01*
Y309231D01*
Y309038D01*
X294615D01*
Y308846D01*
Y308654D01*
Y308461D01*
Y308269D01*
Y308077D01*
Y307885D01*
X294423D01*
Y307692D01*
Y307500D01*
Y307308D01*
X294231D01*
Y307115D01*
Y306923D01*
Y306731D01*
X294039D01*
Y306539D01*
Y306346D01*
X293846D01*
Y306154D01*
Y305961D01*
X293654D01*
Y305769D01*
Y305577D01*
X293461D01*
Y305385D01*
X293269D01*
Y305192D01*
X293077D01*
Y305000D01*
X292885D01*
Y304808D01*
X292692D01*
Y304615D01*
X292500D01*
Y304423D01*
X292308D01*
Y304231D01*
X292115D01*
Y304039D01*
X291923D01*
Y303846D01*
X291539D01*
Y303654D01*
X291346D01*
Y303462D01*
X290769D01*
Y303269D01*
X290385D01*
Y303077D01*
X289615D01*
Y302885D01*
X286731D01*
Y303077D01*
X285962D01*
Y303269D01*
X285385D01*
Y303462D01*
X285000D01*
Y303654D01*
X284615D01*
Y303846D01*
X284423D01*
Y304039D01*
X284038D01*
Y304231D01*
X283846D01*
Y304423D01*
X283654D01*
Y304615D01*
X283461D01*
Y304808D01*
X283269D01*
Y305000D01*
X283077D01*
Y305192D01*
X282885D01*
Y305385D01*
Y305577D01*
X282692D01*
Y305769D01*
X282500D01*
Y305961D01*
Y306154D01*
X282308D01*
Y306346D01*
Y306539D01*
X282115D01*
Y306731D01*
Y306923D01*
X281923D01*
Y307115D01*
Y307308D01*
Y307500D01*
X281731D01*
Y307692D01*
Y307885D01*
Y308077D01*
Y308269D01*
Y308461D01*
X281539D01*
Y308654D01*
Y308846D01*
Y309038D01*
Y309231D01*
Y309423D01*
Y309615D01*
Y309808D01*
Y310000D01*
Y310192D01*
Y310385D01*
Y310577D01*
Y310769D01*
Y310962D01*
Y311154D01*
Y311346D01*
Y311539D01*
X281731D01*
Y311731D01*
Y311923D01*
Y312115D01*
Y312308D01*
Y312500D01*
X281923D01*
Y312692D01*
Y312885D01*
Y313077D01*
X282115D01*
Y313269D01*
Y313461D01*
X282308D01*
Y313654D01*
Y313846D01*
X282500D01*
Y314038D01*
Y314231D01*
X282692D01*
Y314423D01*
X282885D01*
Y314615D01*
Y314808D01*
X283077D01*
Y315000D01*
X283269D01*
Y315192D01*
X283461D01*
Y315385D01*
X283654D01*
Y315577D01*
X283846D01*
Y315769D01*
X284038D01*
Y315962D01*
X284231D01*
Y316154D01*
X284615D01*
Y316346D01*
X285000D01*
Y316539D01*
X285385D01*
Y316731D01*
X285962D01*
Y316923D01*
X286731D01*
Y317115D01*
X289615D01*
Y316923D01*
D02*
G37*
G36*
X309615Y298269D02*
Y298077D01*
Y297885D01*
Y297692D01*
Y297500D01*
Y297308D01*
Y297115D01*
Y296923D01*
Y296731D01*
Y296538D01*
Y296346D01*
Y296154D01*
Y295961D01*
Y295769D01*
Y295577D01*
Y295385D01*
Y295192D01*
Y295000D01*
Y294808D01*
Y294615D01*
Y294423D01*
Y294231D01*
X309808D01*
Y294423D01*
X310000D01*
Y294615D01*
X310192D01*
Y294808D01*
X310577D01*
Y295000D01*
X311154D01*
Y295192D01*
X313269D01*
Y295000D01*
X313654D01*
Y294808D01*
X314038D01*
Y294615D01*
X314423D01*
Y294423D01*
X314615D01*
Y294231D01*
X314808D01*
Y294039D01*
X315000D01*
Y293846D01*
X315192D01*
Y293654D01*
Y293461D01*
X315385D01*
Y293269D01*
Y293077D01*
X315577D01*
Y292885D01*
Y292692D01*
Y292500D01*
X315769D01*
Y292308D01*
Y292115D01*
Y291923D01*
X315962D01*
Y291731D01*
Y291539D01*
Y291346D01*
Y291154D01*
Y290962D01*
X316154D01*
Y290769D01*
Y290577D01*
Y290385D01*
Y290192D01*
Y290000D01*
Y289808D01*
Y289615D01*
Y289423D01*
Y289231D01*
Y289038D01*
Y288846D01*
X315962D01*
Y288654D01*
Y288461D01*
Y288269D01*
Y288077D01*
Y287885D01*
X315769D01*
Y287692D01*
Y287500D01*
Y287308D01*
X315577D01*
Y287115D01*
Y286923D01*
Y286731D01*
X315385D01*
Y286539D01*
Y286346D01*
X317115D01*
Y286539D01*
Y286731D01*
X317308D01*
Y286923D01*
X317500D01*
Y287115D01*
X318654D01*
Y286923D01*
X318846D01*
Y286731D01*
X319039D01*
Y286539D01*
Y286346D01*
X319231D01*
Y286154D01*
Y285962D01*
Y285769D01*
X319039D01*
Y285577D01*
Y285385D01*
X318846D01*
Y285192D01*
X318654D01*
Y285000D01*
X317500D01*
Y285192D01*
X317308D01*
Y285385D01*
X317115D01*
Y285577D01*
X314615D01*
Y285385D01*
X314423D01*
Y285192D01*
X314231D01*
Y285000D01*
X313846D01*
Y284808D01*
X313461D01*
Y284615D01*
X312885D01*
Y284423D01*
X310385D01*
Y284615D01*
X309808D01*
Y284808D01*
X309423D01*
Y285000D01*
X309231D01*
Y285192D01*
X308846D01*
Y285385D01*
X308654D01*
Y285577D01*
X308461D01*
Y285769D01*
Y285962D01*
X308269D01*
Y285769D01*
Y285577D01*
X308077D01*
Y285385D01*
Y285192D01*
X307885D01*
Y285000D01*
Y284808D01*
Y284615D01*
X305385D01*
Y284808D01*
Y285000D01*
Y285192D01*
Y285385D01*
Y285577D01*
Y285769D01*
Y285962D01*
Y286154D01*
Y286346D01*
Y286539D01*
Y286731D01*
Y286923D01*
Y287115D01*
Y287308D01*
Y287500D01*
Y287692D01*
Y287885D01*
Y288077D01*
Y288269D01*
Y288461D01*
Y288654D01*
Y288846D01*
Y289038D01*
Y289231D01*
Y289423D01*
Y289615D01*
Y289808D01*
Y290000D01*
Y290192D01*
Y290385D01*
Y290577D01*
Y290769D01*
Y290962D01*
Y291154D01*
Y291346D01*
Y291539D01*
Y291731D01*
Y291923D01*
Y292115D01*
Y292308D01*
Y292500D01*
Y292692D01*
Y292885D01*
Y293077D01*
Y293269D01*
Y293461D01*
Y293654D01*
Y293846D01*
Y294039D01*
Y294231D01*
Y294423D01*
Y294615D01*
Y294808D01*
Y295000D01*
Y295192D01*
Y295385D01*
Y295577D01*
Y295769D01*
Y295961D01*
Y296154D01*
Y296346D01*
Y296538D01*
Y296731D01*
Y296923D01*
Y297115D01*
Y297308D01*
Y297500D01*
Y297692D01*
Y297885D01*
Y298077D01*
Y298269D01*
Y298462D01*
X309615D01*
Y298269D01*
D02*
G37*
G36*
X300000Y295000D02*
X300769D01*
Y294808D01*
X301346D01*
Y294615D01*
X301731D01*
Y294423D01*
X302115D01*
Y294231D01*
X302308D01*
Y294039D01*
X302500D01*
Y293846D01*
X302692D01*
Y293654D01*
X302885D01*
Y293461D01*
Y293269D01*
X303077D01*
Y293077D01*
Y292885D01*
Y292692D01*
X303269D01*
Y292500D01*
Y292308D01*
Y292115D01*
Y291923D01*
Y291731D01*
Y291539D01*
Y291346D01*
Y291154D01*
Y290962D01*
Y290769D01*
Y290577D01*
Y290385D01*
Y290192D01*
Y290000D01*
Y289808D01*
Y289615D01*
Y289423D01*
Y289231D01*
Y289038D01*
Y288846D01*
Y288654D01*
Y288461D01*
Y288269D01*
Y288077D01*
Y287885D01*
Y287692D01*
Y287500D01*
Y287308D01*
Y287115D01*
Y286923D01*
Y286731D01*
Y286539D01*
Y286346D01*
Y286154D01*
Y285962D01*
Y285769D01*
Y285577D01*
X303462D01*
Y285385D01*
Y285192D01*
Y285000D01*
Y284808D01*
X303654D01*
Y284615D01*
X299615D01*
Y284808D01*
Y285000D01*
Y285192D01*
Y285385D01*
Y285577D01*
Y285769D01*
Y285962D01*
X299423D01*
Y285769D01*
X299231D01*
Y285577D01*
X299039D01*
Y285385D01*
X298846D01*
Y285192D01*
X298654D01*
Y285000D01*
X298462D01*
Y284808D01*
X298077D01*
Y284615D01*
X297500D01*
Y284423D01*
X295000D01*
Y284615D01*
X294423D01*
Y284808D01*
X294039D01*
Y285000D01*
X293846D01*
Y285192D01*
X293461D01*
Y285385D01*
X293269D01*
Y285577D01*
Y285769D01*
X293077D01*
Y285962D01*
X292885D01*
Y286154D01*
Y286346D01*
X292692D01*
Y286539D01*
Y286731D01*
Y286923D01*
Y287115D01*
X292500D01*
Y287308D01*
Y287500D01*
Y287692D01*
Y287885D01*
X292692D01*
Y288077D01*
Y288269D01*
Y288461D01*
Y288654D01*
X292885D01*
Y288846D01*
Y289038D01*
X293077D01*
Y289231D01*
X293269D01*
Y289423D01*
Y289615D01*
X293461D01*
Y289808D01*
X293654D01*
Y290000D01*
X294039D01*
Y290192D01*
X294231D01*
Y290385D01*
X294615D01*
Y290577D01*
X295192D01*
Y290769D01*
X295769D01*
Y290962D01*
X296538D01*
Y291154D01*
X297692D01*
Y291346D01*
X299423D01*
Y291539D01*
Y291731D01*
X299231D01*
Y291923D01*
Y292115D01*
Y292308D01*
X299039D01*
Y292500D01*
X298654D01*
Y292692D01*
X297500D01*
Y292500D01*
X297115D01*
Y292308D01*
X296923D01*
Y292115D01*
X296731D01*
Y291923D01*
Y291731D01*
Y291539D01*
X295192D01*
Y291731D01*
X293461D01*
Y291923D01*
X292885D01*
Y292115D01*
Y292308D01*
X293077D01*
Y292500D01*
Y292692D01*
Y292885D01*
X293269D01*
Y293077D01*
X293461D01*
Y293269D01*
Y293461D01*
X293654D01*
Y293654D01*
X293846D01*
Y293846D01*
X294039D01*
Y294039D01*
X294231D01*
Y294231D01*
X294423D01*
Y294423D01*
X294808D01*
Y294615D01*
X295192D01*
Y294808D01*
X295769D01*
Y295000D01*
X296538D01*
Y295192D01*
X300000D01*
Y295000D01*
D02*
G37*
G36*
X284423Y301538D02*
X284808D01*
Y301346D01*
X285000D01*
Y301154D01*
X285192D01*
Y300961D01*
Y300769D01*
Y300577D01*
Y300385D01*
Y300192D01*
X285000D01*
Y300000D01*
Y299808D01*
X284808D01*
Y299615D01*
X284423D01*
Y299423D01*
Y299231D01*
Y299039D01*
Y298846D01*
Y298654D01*
Y298462D01*
X286539D01*
Y298269D01*
Y298077D01*
Y297885D01*
Y297692D01*
Y297500D01*
Y297308D01*
Y297115D01*
Y296923D01*
Y296731D01*
Y296538D01*
Y296346D01*
Y296154D01*
Y295961D01*
Y295769D01*
Y295577D01*
Y295385D01*
Y295192D01*
Y295000D01*
Y294808D01*
Y294615D01*
Y294423D01*
Y294231D01*
Y294039D01*
Y293846D01*
Y293654D01*
Y293461D01*
Y293269D01*
Y293077D01*
Y292885D01*
Y292692D01*
Y292500D01*
Y292308D01*
Y292115D01*
Y291923D01*
Y291731D01*
Y291539D01*
Y291346D01*
Y291154D01*
Y290962D01*
Y290769D01*
Y290577D01*
Y290385D01*
Y290192D01*
Y290000D01*
Y289808D01*
Y289615D01*
Y289423D01*
Y289231D01*
Y289038D01*
Y288846D01*
Y288654D01*
Y288461D01*
Y288269D01*
Y288077D01*
X291923D01*
Y287885D01*
Y287692D01*
Y287500D01*
Y287308D01*
Y287115D01*
Y286923D01*
Y286731D01*
Y286539D01*
Y286346D01*
Y286154D01*
Y285962D01*
Y285769D01*
Y285577D01*
Y285385D01*
Y285192D01*
Y285000D01*
Y284808D01*
Y284615D01*
X282115D01*
Y284808D01*
Y285000D01*
Y285192D01*
Y285385D01*
Y285577D01*
Y285769D01*
Y285962D01*
Y286154D01*
Y286346D01*
Y286539D01*
Y286731D01*
Y286923D01*
Y287115D01*
Y287308D01*
Y287500D01*
Y287692D01*
Y287885D01*
Y288077D01*
Y288269D01*
Y288461D01*
Y288654D01*
Y288846D01*
Y289038D01*
Y289231D01*
Y289423D01*
Y289615D01*
Y289808D01*
Y290000D01*
Y290192D01*
Y290385D01*
Y290577D01*
Y290769D01*
Y290962D01*
Y291154D01*
Y291346D01*
Y291539D01*
Y291731D01*
Y291923D01*
Y292115D01*
Y292308D01*
Y292500D01*
Y292692D01*
Y292885D01*
Y293077D01*
Y293269D01*
Y293461D01*
Y293654D01*
Y293846D01*
Y294039D01*
Y294231D01*
Y294423D01*
Y294615D01*
Y294808D01*
Y295000D01*
Y295192D01*
Y295385D01*
Y295577D01*
Y295769D01*
Y295961D01*
Y296154D01*
Y296346D01*
Y296538D01*
Y296731D01*
Y296923D01*
Y297115D01*
Y297308D01*
Y297500D01*
Y297692D01*
Y297885D01*
Y298077D01*
Y298269D01*
Y298462D01*
X283846D01*
Y298654D01*
Y298846D01*
Y299039D01*
Y299231D01*
Y299423D01*
Y299615D01*
X283461D01*
Y299808D01*
X283269D01*
Y300000D01*
X283077D01*
Y300192D01*
Y300385D01*
Y300577D01*
Y300769D01*
Y300961D01*
Y301154D01*
X283269D01*
Y301346D01*
X283461D01*
Y301538D01*
X283654D01*
Y301731D01*
X284423D01*
Y301538D01*
D02*
G37*
%LPC*%
G36*
X288654Y314038D02*
X287692D01*
Y313846D01*
X287308D01*
Y313654D01*
X287115D01*
Y313461D01*
X286923D01*
Y313269D01*
X286731D01*
Y313077D01*
Y312885D01*
X286539D01*
Y312692D01*
Y312500D01*
Y312308D01*
X286346D01*
Y312115D01*
Y311923D01*
Y311731D01*
Y311539D01*
Y311346D01*
X286154D01*
Y311154D01*
Y310962D01*
Y310769D01*
Y310577D01*
Y310385D01*
Y310192D01*
Y310000D01*
Y309808D01*
Y309615D01*
Y309423D01*
Y309231D01*
Y309038D01*
Y308846D01*
Y308654D01*
Y308461D01*
X286346D01*
Y308269D01*
Y308077D01*
Y307885D01*
Y307692D01*
Y307500D01*
X286539D01*
Y307308D01*
Y307115D01*
X286731D01*
Y306923D01*
Y306731D01*
X286923D01*
Y306539D01*
X287115D01*
Y306346D01*
X287308D01*
Y306154D01*
X287692D01*
Y305961D01*
X288654D01*
Y306154D01*
X289038D01*
Y306346D01*
X289231D01*
Y306539D01*
X289423D01*
Y306731D01*
X289615D01*
Y306923D01*
Y307115D01*
X289808D01*
Y307308D01*
Y307500D01*
Y307692D01*
X290000D01*
Y307885D01*
Y308077D01*
Y308269D01*
Y308461D01*
Y308654D01*
Y308846D01*
Y309038D01*
Y309231D01*
Y309423D01*
Y309615D01*
Y309808D01*
Y310000D01*
Y310192D01*
Y310385D01*
Y310577D01*
Y310769D01*
Y310962D01*
Y311154D01*
Y311346D01*
Y311539D01*
Y311731D01*
Y311923D01*
Y312115D01*
Y312308D01*
X289808D01*
Y312500D01*
Y312692D01*
Y312885D01*
X289615D01*
Y313077D01*
Y313269D01*
X289423D01*
Y313461D01*
X289231D01*
Y313654D01*
X289038D01*
Y313846D01*
X288654D01*
Y314038D01*
D02*
G37*
G36*
X310962Y292692D02*
X310385D01*
Y292500D01*
X310000D01*
Y292308D01*
X309808D01*
Y292115D01*
X309615D01*
Y291923D01*
Y291731D01*
Y291539D01*
Y291346D01*
Y291154D01*
Y290962D01*
Y290769D01*
Y290577D01*
Y290385D01*
Y290192D01*
Y290000D01*
Y289808D01*
Y289615D01*
Y289423D01*
Y289231D01*
Y289038D01*
Y288846D01*
Y288654D01*
Y288461D01*
Y288269D01*
Y288077D01*
Y287885D01*
Y287692D01*
Y287500D01*
X309808D01*
Y287308D01*
X310000D01*
Y287115D01*
X310192D01*
Y286923D01*
X310962D01*
Y287115D01*
X311346D01*
Y287308D01*
X311539D01*
Y287500D01*
X311731D01*
Y287692D01*
Y287885D01*
Y288077D01*
X311923D01*
Y288269D01*
Y288461D01*
Y288654D01*
Y288846D01*
Y289038D01*
Y289231D01*
Y289423D01*
Y289615D01*
Y289808D01*
Y290000D01*
Y290192D01*
Y290385D01*
Y290577D01*
Y290769D01*
Y290962D01*
Y291154D01*
Y291346D01*
Y291539D01*
X311731D01*
Y291731D01*
Y291923D01*
Y292115D01*
X311539D01*
Y292308D01*
X311346D01*
Y292500D01*
X310962D01*
Y292692D01*
D02*
G37*
G36*
X299423Y289231D02*
X298846D01*
Y289038D01*
X298077D01*
Y288846D01*
X297500D01*
Y288654D01*
X297308D01*
Y288461D01*
X297115D01*
Y288269D01*
X296923D01*
Y288077D01*
Y287885D01*
Y287692D01*
Y287500D01*
Y287308D01*
Y287115D01*
X297308D01*
Y286923D01*
X298269D01*
Y287115D01*
X298846D01*
Y287308D01*
X299039D01*
Y287500D01*
Y287692D01*
X299231D01*
Y287885D01*
Y288077D01*
Y288269D01*
Y288461D01*
X299423D01*
Y288654D01*
Y288846D01*
Y289038D01*
Y289231D01*
D02*
G37*
%LPD*%
G36*
X321731Y313461D02*
X322500D01*
Y313269D01*
X323077D01*
Y313077D01*
X323462D01*
Y312885D01*
X323654D01*
Y312692D01*
X323846D01*
Y312500D01*
X324039D01*
Y312308D01*
X324231D01*
Y312115D01*
X324423D01*
Y311923D01*
X324615D01*
Y311731D01*
X324808D01*
Y311539D01*
Y311346D01*
X325000D01*
Y311154D01*
Y310962D01*
X324615D01*
Y310769D01*
X323654D01*
Y310577D01*
X322692D01*
Y310385D01*
X321923D01*
Y310577D01*
X321731D01*
Y310769D01*
X321346D01*
Y310962D01*
X320769D01*
Y311154D01*
X319423D01*
Y310962D01*
X319039D01*
Y310769D01*
X318846D01*
Y310577D01*
Y310385D01*
X319039D01*
Y310192D01*
X320000D01*
Y310000D01*
X321731D01*
Y309808D01*
X322885D01*
Y309615D01*
X323462D01*
Y309423D01*
X323846D01*
Y309231D01*
X324231D01*
Y309038D01*
X324423D01*
Y308846D01*
X324615D01*
Y308654D01*
X324808D01*
Y308461D01*
X325000D01*
Y308269D01*
Y308077D01*
X325192D01*
Y307885D01*
Y307692D01*
X325385D01*
Y307500D01*
Y307308D01*
Y307115D01*
Y306923D01*
X325577D01*
Y306731D01*
Y306539D01*
Y306346D01*
Y306154D01*
X325385D01*
Y305961D01*
Y305769D01*
Y305577D01*
Y305385D01*
X325192D01*
Y305192D01*
Y305000D01*
X325000D01*
Y304808D01*
Y304615D01*
X324808D01*
Y304423D01*
X324615D01*
Y304231D01*
X324423D01*
Y304039D01*
X324231D01*
Y303846D01*
X323846D01*
Y303654D01*
X323654D01*
Y303462D01*
X323077D01*
Y303269D01*
X322692D01*
Y303077D01*
X321731D01*
Y302885D01*
X318461D01*
Y303077D01*
X317692D01*
Y303269D01*
X317115D01*
Y303462D01*
X316731D01*
Y303654D01*
X316539D01*
Y303846D01*
X316154D01*
Y304039D01*
X315962D01*
Y304231D01*
X315769D01*
Y304423D01*
X315577D01*
Y304615D01*
Y304808D01*
X315385D01*
Y305000D01*
X315192D01*
Y305192D01*
Y305385D01*
X315000D01*
Y305577D01*
Y305769D01*
Y305961D01*
X315769D01*
Y306154D01*
X317115D01*
Y306346D01*
X318269D01*
Y306154D01*
Y305961D01*
X318461D01*
Y305769D01*
X318846D01*
Y305577D01*
X319423D01*
Y305385D01*
X321154D01*
Y305577D01*
X321731D01*
Y305769D01*
X321923D01*
Y305961D01*
Y306154D01*
X321731D01*
Y306346D01*
X321346D01*
Y306539D01*
X319808D01*
Y306731D01*
X318654D01*
Y306923D01*
X317885D01*
Y307115D01*
X317308D01*
Y307308D01*
X316923D01*
Y307500D01*
X316539D01*
Y307692D01*
X316346D01*
Y307885D01*
X316154D01*
Y308077D01*
X315962D01*
Y308269D01*
Y308461D01*
X315769D01*
Y308654D01*
Y308846D01*
X315577D01*
Y309038D01*
Y309231D01*
Y309423D01*
X315385D01*
Y309615D01*
Y309808D01*
Y310000D01*
Y310192D01*
Y310385D01*
Y310577D01*
Y310769D01*
X315577D01*
Y310962D01*
Y311154D01*
Y311346D01*
X315769D01*
Y311539D01*
Y311731D01*
X315962D01*
Y311923D01*
X316154D01*
Y312115D01*
Y312308D01*
X316346D01*
Y312500D01*
X316539D01*
Y312692D01*
X316923D01*
Y312885D01*
X317115D01*
Y313077D01*
X317500D01*
Y313269D01*
X318077D01*
Y313461D01*
X318846D01*
Y313654D01*
X321731D01*
Y313461D01*
D02*
G37*
%LPC*%
G36*
X215228Y350929D02*
X212622D01*
Y349551D01*
X212746Y348931D01*
X213097Y348405D01*
X213623Y348053D01*
X214244Y347930D01*
X215228D01*
Y350929D01*
D02*
G37*
G36*
X218673Y346673D02*
X216787D01*
Y344787D01*
X218673D01*
Y346673D01*
D02*
G37*
G36*
X215213D02*
X213327D01*
Y344787D01*
X215213D01*
Y346673D01*
D02*
G37*
G36*
X207974Y332362D02*
X206088D01*
Y330476D01*
X207974D01*
Y332362D01*
D02*
G37*
%LPD*%
D13*
X163404Y294404D02*
X196676D01*
D14*
X180642Y368146D02*
X183000Y365788D01*
X180642Y368146D02*
Y372386D01*
X183000Y365000D02*
Y365788D01*
X189500Y359000D02*
X192453Y361953D01*
X202886D01*
X198358Y345614D02*
Y349854D01*
X196000Y352212D02*
X198358Y349854D01*
X196000Y352212D02*
Y353000D01*
X180142Y350142D02*
X180470Y350470D01*
X180970D02*
X189500Y359000D01*
X176114Y350142D02*
X180142D01*
X180470Y350470D02*
X180970D01*
X198358Y372386D02*
Y376308D01*
X202886Y363921D02*
X206921D01*
X200327Y335923D02*
X200388Y335862D01*
X200327Y335923D02*
Y345614D01*
X169600Y368400D02*
Y369000D01*
X172110Y365890D02*
X176114D01*
X169600Y368400D02*
X172110Y365890D01*
X171042Y361953D02*
X176114D01*
X169995Y363000D02*
X171042Y361953D01*
X169400Y363000D02*
X169995D01*
X167516Y359984D02*
X176114D01*
X187700Y339250D02*
Y339700D01*
X190484Y342484D02*
Y345614D01*
X187700Y339700D02*
X190484Y342484D01*
X189900Y338900D02*
X192453Y341453D01*
X207984Y359984D02*
X210000Y362000D01*
X202886Y359984D02*
X207984D01*
X193000Y337000D02*
X194421Y338421D01*
X196390Y335028D02*
Y345614D01*
X194421Y338421D02*
Y345614D01*
X192453Y341453D02*
Y345614D01*
X178673D02*
X178711Y345577D01*
Y339289D02*
X178783Y339217D01*
X178711Y339289D02*
Y345577D01*
X172000Y342184D02*
X176114Y346298D01*
Y348173D01*
X172000Y338000D02*
Y342184D01*
X171127Y352110D02*
X176114D01*
X168079Y354079D02*
X176114D01*
X167263Y356047D02*
X176114D01*
X178622Y381701D02*
X178673Y381650D01*
Y372386D02*
Y381650D01*
X223346Y351669D02*
Y352063D01*
X219362Y356047D02*
X223346Y352063D01*
X222102Y344000D02*
X222709Y344606D01*
Y351716D01*
X214626Y358016D02*
X216653Y360044D01*
X216000Y368000D02*
X216016Y367984D01*
Y360378D02*
Y367984D01*
X216653Y360044D02*
Y360331D01*
X202886Y358016D02*
X214626D01*
X202886Y356047D02*
X219362D01*
X164484Y358016D02*
X176114D01*
D21*
X116251Y308700D02*
D03*
X110149D02*
D03*
X162949Y320000D02*
D03*
X169051D02*
D03*
X162949Y314000D02*
D03*
X169051D02*
D03*
X292949Y355000D02*
D03*
X299051D02*
D03*
X292949Y344856D02*
D03*
X299051D02*
D03*
X215949Y330000D02*
D03*
X222051D02*
D03*
Y336000D02*
D03*
X215949D02*
D03*
X216000Y344000D02*
D03*
X222102D02*
D03*
X222051Y373000D02*
D03*
X215949D02*
D03*
X222102Y368000D02*
D03*
X216000D02*
D03*
X147051Y368500D02*
D03*
X140949D02*
D03*
X134051Y301000D02*
D03*
X127949D02*
D03*
X134051Y290000D02*
D03*
X127949D02*
D03*
X119949Y372500D02*
D03*
X126051D02*
D03*
X119949Y379000D02*
D03*
X126051D02*
D03*
X116049Y362700D02*
D03*
X122151D02*
D03*
X243983Y342510D02*
D03*
X237881D02*
D03*
X243983Y357409D02*
D03*
X237881D02*
D03*
X323949Y365000D02*
D03*
X330051D02*
D03*
D22*
X329039Y354921D02*
D03*
X308961D02*
D03*
X329039Y345079D02*
D03*
X308961D02*
D03*
D23*
X255955Y327179D02*
D03*
Y333281D02*
D03*
X264000Y327179D02*
D03*
Y333281D02*
D03*
X274723Y327179D02*
D03*
Y333281D02*
D03*
X285000Y363949D02*
D03*
Y370051D02*
D03*
X125900Y391151D02*
D03*
Y385049D02*
D03*
X164100Y387804D02*
D03*
Y381701D02*
D03*
X244700Y300951D02*
D03*
Y294849D02*
D03*
X205301Y335791D02*
D03*
Y329689D02*
D03*
X200388Y335862D02*
D03*
Y329760D02*
D03*
X172000Y338000D02*
D03*
Y331898D02*
D03*
X178622Y381701D02*
D03*
Y387804D02*
D03*
X252400Y294849D02*
D03*
Y300951D02*
D03*
X133100Y391151D02*
D03*
Y385049D02*
D03*
X285000Y353051D02*
D03*
Y346949D02*
D03*
D24*
X222709Y351716D02*
D03*
X216016D02*
D03*
Y360378D02*
D03*
X222709D02*
D03*
D25*
X189500Y359000D02*
D03*
D26*
X200327Y345614D02*
D03*
X198358D02*
D03*
X196390D02*
D03*
X194421D02*
D03*
X192453D02*
D03*
X190484D02*
D03*
X188516D02*
D03*
X186547D02*
D03*
X184579D02*
D03*
X182610D02*
D03*
X180642D02*
D03*
X178673D02*
D03*
Y372386D02*
D03*
X180642D02*
D03*
X182610D02*
D03*
X184579D02*
D03*
X186547D02*
D03*
X188516D02*
D03*
X190484D02*
D03*
X192453D02*
D03*
X194421D02*
D03*
X196390D02*
D03*
X198358D02*
D03*
X200327D02*
D03*
D27*
X176114Y348173D02*
D03*
Y350142D02*
D03*
Y352110D02*
D03*
Y354079D02*
D03*
Y356047D02*
D03*
Y358016D02*
D03*
Y359984D02*
D03*
Y361953D02*
D03*
Y363921D02*
D03*
Y365890D02*
D03*
Y367858D02*
D03*
Y369827D02*
D03*
X202886D02*
D03*
Y367858D02*
D03*
Y365890D02*
D03*
Y363921D02*
D03*
Y361953D02*
D03*
Y359984D02*
D03*
Y358016D02*
D03*
Y356047D02*
D03*
Y354079D02*
D03*
Y352110D02*
D03*
Y350142D02*
D03*
Y348173D02*
D03*
D28*
X130441Y356260D02*
D03*
X135559D02*
D03*
X133000Y363740D02*
D03*
X133000Y356260D02*
D03*
X130441Y363740D02*
D03*
X135559D02*
D03*
X287441Y326260D02*
D03*
X292559D02*
D03*
X290000Y333740D02*
D03*
X290000Y326260D02*
D03*
X287441Y333740D02*
D03*
X292559D02*
D03*
D29*
X134898Y373047D02*
D03*
Y375016D02*
D03*
Y376984D02*
D03*
Y378953D02*
D03*
X147102Y376984D02*
D03*
Y375016D02*
D03*
Y373047D02*
D03*
Y378953D02*
D03*
D30*
X124100Y355200D02*
D03*
X116100D02*
D03*
D31*
X154083Y294500D02*
D03*
D32*
X176917Y303555D02*
D03*
Y294500D02*
D03*
Y285445D02*
D03*
D33*
X274630Y342500D02*
D03*
Y347500D02*
D03*
Y352500D02*
D03*
Y357500D02*
D03*
X253370Y342500D02*
D03*
Y347500D02*
D03*
Y352500D02*
D03*
Y357500D02*
D03*
D34*
X158224Y331000D02*
D03*
X148776Y334740D02*
D03*
Y331000D02*
D03*
Y327260D02*
D03*
X158224D02*
D03*
Y334740D02*
D03*
D59*
X202844Y326512D02*
Y329724D01*
X205265D01*
X200423D02*
X202844D01*
X205265D02*
X205301Y329689D01*
X200388Y329760D02*
X200423Y329724D01*
X202756Y326423D02*
X202844Y326512D01*
X215949Y373000D02*
Y381949D01*
X178622Y381701D02*
X189701D01*
D60*
X274630Y352500D02*
X289000D01*
X200457Y335931D02*
X215880D01*
X223000Y323000D02*
X233000Y333000D01*
Y356000D01*
X234409Y357409D01*
X226000Y320000D02*
X237881Y331881D01*
Y342510D01*
X227000Y341000D02*
Y343000D01*
X226000Y340000D02*
X227000Y341000D01*
X216000Y339000D02*
X217000Y340000D01*
X226000D01*
X215949Y336000D02*
X216000Y336051D01*
Y339000D01*
X215880Y335931D02*
X215949Y336000D01*
X200388Y335862D02*
X200457Y335931D01*
X276000Y318000D02*
X280000Y322000D01*
Y326000D01*
X283804Y329804D01*
X289000Y352500D02*
X290449D01*
X289000D02*
Y359000D01*
X287441Y333740D02*
Y340441D01*
X274630Y347500D02*
X290305D01*
X292559Y333740D02*
Y345246D01*
X290305Y347500D02*
X292559Y345246D01*
X283804Y329804D02*
X289077D01*
X290000Y330727D01*
Y333740D01*
X236258Y318000D02*
Y320258D01*
Y311195D02*
Y318000D01*
X276000D01*
X255955Y333281D02*
X264000D01*
X249281D02*
X255955D01*
X236258Y320258D02*
X249281Y333281D01*
X263500Y347500D02*
X264000Y348000D01*
X124423Y342500D02*
X135500D01*
X123500Y335307D02*
Y341578D01*
Y335307D02*
X123658Y335150D01*
X123500Y341578D02*
X124423Y342500D01*
X236258Y285605D02*
Y311195D01*
X299051Y355000D02*
X299091Y354961D01*
X308921D01*
X308961Y354921D01*
X299163Y344967D02*
X308849D01*
X308961Y345079D01*
X299051Y344856D02*
X299163Y344967D01*
X290449Y352500D02*
X292949Y355000D01*
X193000Y324000D02*
Y337000D01*
Y324000D02*
X197000Y320000D01*
X226000D01*
X196390Y324610D02*
Y335028D01*
Y324610D02*
X198000Y323000D01*
X223000D01*
X234409Y357409D02*
X237881D01*
X243988Y342505D02*
X253365D01*
X253370Y342500D01*
X243983Y342510D02*
X243988Y342505D01*
X243983Y357409D02*
X244029Y357455D01*
X253325D01*
X343802Y331803D02*
Y338189D01*
X336000Y324000D02*
X343802Y331803D01*
X319000Y324000D02*
X336000D01*
X319000Y336833D02*
Y364077D01*
Y336833D02*
X321000Y334833D01*
Y334000D02*
Y334833D01*
X319922Y365000D02*
X323949D01*
X319000Y364077D02*
X319922Y365000D01*
X330051D02*
X333240Y361811D01*
X343802D01*
X253370Y347500D02*
X263500D01*
X274723Y333281D02*
Y342407D01*
X274630Y342500D02*
X274723Y342407D01*
X253346Y342476D02*
X253370Y342500D01*
X243983Y342510D02*
X244007Y342533D01*
X253325Y357455D02*
X253370Y357500D01*
X343476Y354398D02*
X344000Y353874D01*
X329039Y354921D02*
X329563Y354398D01*
X343476D01*
X329500Y345539D02*
X343539D01*
X329039Y345079D02*
X329500Y345539D01*
X343539D02*
X344000Y346000D01*
X135500Y342500D02*
X143260Y334740D01*
X148776D01*
X142500Y327500D02*
X148535D01*
X148776Y327260D01*
X128382Y332000D02*
X138000D01*
X142500Y327500D01*
D61*
X175000Y338000D02*
X178000Y335000D01*
X172000Y338000D02*
X175000D01*
X178000Y328000D02*
Y335000D01*
X274630Y363000D02*
Y368630D01*
Y357500D02*
Y363000D01*
X284051D01*
X285000Y363949D01*
X284949Y364000D02*
X285000Y363949D01*
X198358Y376308D02*
X199050Y377000D01*
X203355D01*
X215949Y381949D02*
X216000Y382000D01*
X209900Y366900D02*
Y371900D01*
X206921Y363921D02*
X209900Y366900D01*
X211000Y373000D02*
X215949D01*
X209900Y371900D02*
X211000Y373000D01*
X134898Y371325D02*
X138124D01*
X164100Y363400D02*
Y375100D01*
X147102Y375016D02*
X164016D01*
X164100Y375100D01*
Y363400D02*
X167516Y359984D01*
X164100Y375100D02*
Y381701D01*
X133476Y390776D02*
X140524D01*
X133100Y391151D02*
X133476Y390776D01*
X140524D02*
X140900Y390400D01*
X136251Y385049D02*
X137900Y383400D01*
Y383300D02*
Y383400D01*
X133100Y385049D02*
X136251D01*
X134898Y378953D02*
X140221D01*
X140768Y379500D01*
X141301D01*
X126051Y379000D02*
X134898D01*
X125976Y379076D02*
Y384973D01*
X125900Y385049D02*
X125976Y384973D01*
Y379076D02*
X126051Y379000D01*
X158400Y357300D02*
Y357600D01*
X119700Y347500D02*
X148600D01*
X158400Y357300D01*
X116251Y344051D02*
X119700Y347500D01*
X116251Y308700D02*
Y344051D01*
X110324Y301276D02*
Y308524D01*
Y301276D02*
X110500Y301100D01*
X110149Y308700D02*
X110324Y308524D01*
X218542Y285605D02*
Y311195D01*
X240219Y300819D02*
X244568D01*
X240088Y300688D02*
X240219Y300819D01*
X244568D02*
X244700Y300951D01*
X260200Y303100D02*
X267600D01*
X258800Y301700D02*
X260200Y303100D01*
X258800Y296600D02*
Y301700D01*
X257049Y294849D02*
X258800Y296600D01*
X252400Y294849D02*
X257049D01*
X252600Y304908D02*
X253292Y305600D01*
X252600Y301151D02*
Y304908D01*
X253292Y305600D02*
X256400D01*
X252400Y300951D02*
X252600Y301151D01*
X187700Y323100D02*
Y339250D01*
X215000Y303700D02*
Y306300D01*
X213100Y308200D02*
X215000Y306300D01*
X202600Y308200D02*
X213100D01*
X187700Y323100D02*
X202600Y308200D01*
X189900Y324038D02*
Y338900D01*
X202743Y311195D02*
X218542D01*
X189900Y324038D02*
X202743Y311195D01*
X221250Y326350D02*
X222051Y327151D01*
X210078Y326350D02*
X221250D01*
X222051Y330800D02*
Y336600D01*
Y327151D02*
Y331000D01*
X170435Y348565D02*
Y351418D01*
X171127Y352110D01*
X167000Y327952D02*
Y353000D01*
X164000Y352784D02*
X167263Y356047D01*
X164000Y335432D02*
Y352784D01*
X167000Y353000D02*
X168079Y354079D01*
X166308Y327260D02*
X167000Y327952D01*
X158224Y327260D02*
X166308D01*
X158224Y334740D02*
X163308D01*
X164000Y335432D01*
X164000Y331000D02*
X164000Y331000D01*
X158224Y331000D02*
X164000D01*
X153000Y369500D02*
X164484Y358016D01*
X150484Y376984D02*
X153000Y379500D01*
X135559Y363706D02*
X139387D01*
X139929Y375016D02*
X139945Y375000D01*
X134898Y375016D02*
X139929D01*
X134898Y371325D02*
Y373047D01*
Y369602D02*
Y371325D01*
X138124D02*
X140949Y368500D01*
X139387Y363706D02*
X139421Y363672D01*
X135559Y363706D02*
Y363740D01*
X147102Y376984D02*
X150484D01*
X133000Y363740D02*
Y367172D01*
X134898Y369070D01*
Y369602D01*
X131133Y376984D02*
X134898D01*
X130441Y372059D02*
Y376292D01*
X131133Y376984D01*
X130441Y363740D02*
Y372059D01*
X130000Y372500D02*
X130441Y372059D01*
X126051Y372500D02*
X130000D01*
D62*
X264000Y348000D02*
Y373000D01*
X255000Y382000D02*
X264000Y373000D01*
X216000Y382000D02*
X255000D01*
X190000D02*
X216000D01*
X264000Y333281D02*
Y348000D01*
X186000Y386000D02*
Y396000D01*
Y386000D02*
X190000Y382000D01*
X164000Y399000D02*
X183000D01*
X122613D02*
X164000D01*
X164100Y398900D01*
Y387804D02*
Y398900D01*
X183000Y399000D02*
X186000Y396000D01*
X120307Y396694D02*
X122613Y399000D01*
X120307Y391151D02*
Y396694D01*
X118156Y389000D02*
X120307Y391151D01*
X109500Y389000D02*
X118156D01*
X120307Y391151D02*
X125900D01*
D63*
X109500Y374000D02*
X118449D01*
X119949Y372500D01*
X109500Y379000D02*
X119949D01*
D64*
X110500Y301100D02*
D03*
Y291100D02*
D03*
X319000Y334000D02*
D03*
Y324000D02*
D03*
X267600Y293100D02*
D03*
Y303100D02*
D03*
D65*
X346500Y286200D02*
D03*
X197700Y392700D02*
D03*
D66*
X218542Y285605D02*
D03*
Y311195D02*
D03*
X236258Y285605D02*
D03*
Y311195D02*
D03*
D67*
X201677Y289405D02*
D03*
X196676D02*
D03*
Y299406D02*
D03*
Y294404D02*
D03*
X201677D02*
D03*
Y299406D02*
D03*
D68*
X128382Y332000D02*
D03*
Y325701D02*
D03*
X123658Y335150D02*
D03*
Y328850D02*
D03*
X128382Y338299D02*
D03*
D69*
X108500Y317630D02*
D03*
Y346370D02*
D03*
D70*
X109500Y374000D02*
D03*
D71*
Y379000D02*
D03*
Y384000D02*
D03*
Y389000D02*
D03*
D72*
X150900Y390400D02*
D03*
X140900D02*
D03*
D73*
X343802Y338189D02*
D03*
Y346063D02*
D03*
Y353937D02*
D03*
Y361811D02*
D03*
D74*
X338583Y314961D02*
D03*
X311024Y334646D02*
D03*
X299213D02*
D03*
X275590Y311024D02*
D03*
X338583Y370079D02*
D03*
X311024Y366142D02*
D03*
X295276D02*
D03*
X263779Y385827D02*
D03*
X228346Y389764D02*
D03*
X212598Y397638D02*
D03*
X244094D02*
D03*
X275590D02*
D03*
X299213D02*
D03*
X322835D02*
D03*
X342520D02*
D03*
X354331Y385827D02*
D03*
Y366142D02*
D03*
Y342520D02*
D03*
Y322835D02*
D03*
Y303150D02*
D03*
X334646Y295276D02*
D03*
X323000Y281000D02*
D03*
X283465Y279528D02*
D03*
X267717D02*
D03*
X248031D02*
D03*
X208661D02*
D03*
X192913D02*
D03*
X177165D02*
D03*
X125984D02*
D03*
X110236D02*
D03*
X132000Y320000D02*
D03*
X138000Y312000D02*
D03*
X157000D02*
D03*
X158798Y350739D02*
D03*
X159692Y339501D02*
D03*
X147048Y338990D02*
D03*
X141174Y343332D02*
D03*
X175000Y374000D02*
D03*
X169000Y378000D02*
D03*
X181000Y393000D02*
D03*
X170000D02*
D03*
X231000Y362000D02*
D03*
X258000Y363000D02*
D03*
X256000Y371000D02*
D03*
X228000D02*
D03*
X206000Y342000D02*
D03*
X202756Y326423D02*
D03*
X189500Y359000D02*
D03*
X196000Y353000D02*
D03*
Y365000D02*
D03*
X183000D02*
D03*
X172000Y327000D02*
D03*
X178000Y328000D02*
D03*
X274630Y368630D02*
D03*
X203355Y377000D02*
D03*
X227000Y343000D02*
D03*
X289000Y359000D02*
D03*
X287441Y340441D02*
D03*
X169600Y369000D02*
D03*
X169400Y363000D02*
D03*
X137900Y383300D02*
D03*
X141301Y379500D02*
D03*
X158400Y357600D02*
D03*
X240088Y300688D02*
D03*
X256400Y305600D02*
D03*
X215000Y303700D02*
D03*
X210078Y326350D02*
D03*
X210000Y362000D02*
D03*
X178783Y339217D02*
D03*
X170435Y348565D02*
D03*
X164000Y331000D02*
D03*
X153000Y379500D02*
D03*
X139945Y375000D02*
D03*
X139421Y363672D02*
D03*
X153000Y369500D02*
D03*
X134898Y369602D02*
D03*
D75*
X176000Y314000D02*
D03*
X174362Y319248D02*
D03*
X145000Y295000D02*
D03*
Y290000D02*
D03*
Y300000D02*
D03*
X140000Y295000D02*
D03*
X135000D02*
D03*
M02*
